<?xml version="1.0" encoding="UTF-8"?>
<svg width="107px" height="107px" viewBox="0 0 107 107" version="1.1" xmlns="http://www.w3.org/2000/svg" xmlns:xlink="http://www.w3.org/1999/xlink">
    <title>business</title>
    <g id="Page-2" stroke="none" stroke-width="1" fill="none" fill-rule="evenodd">
        <g id="business" transform="translate(2.000000, 2.000000)">
            <path d="M51.13,0 C22.9105,0 0,22.911 0,51.13 C0,79.35 22.9105,102.26 51.13,102.26 C79.3494,102.26 102.2602,79.35 102.2602,51.13 C102.2602,22.911 79.3494,0 51.13,0 Z" id="Fill-27" fill="#4DB7C5"></path>
            <path d="M51.13,0 C22.9105,0 0,22.911 0,51.13 C0,79.35 22.9105,102.26 51.13,102.26 C79.3494,102.26 102.2602,79.35 102.2602,51.13 C102.2602,22.911 79.3494,0 51.13,0 Z" id="Stroke-28" stroke="#C4E7F1" stroke-width="4"></path>
            <polyline id="Fill-29" fill="#4DB7C5" points="24.41 29.35 46.73 54.38 24.41 79.4"></polyline>
            <polyline id="Stroke-30" stroke="#C4E7F1" stroke-width="4" points="24.41 29.35 46.73 54.38 24.41 79.4"></polyline>
            <polyline id="Fill-31" fill="#4DB7C5" points="77.86 29.35 55.54 54.38 77.86 79.4"></polyline>
            <polyline id="Stroke-32" stroke="#C4E7F1" stroke-width="4" points="77.86 29.35 55.54 54.38 77.86 79.4"></polyline>
            <polyline id="Fill-33" fill="#4DB7C5" points="73.76 23.17 51.44 48.2 29.12 23.17"></polyline>
            <polyline id="Stroke-34" stroke="#C4E7F1" stroke-width="4" points="73.76 23.17 51.44 48.2 29.12 23.17"></polyline>
            <polyline id="Fill-35" fill="#4DB7C5" points="73.76 84.54 51.44 59.51 29.12 84.54"></polyline>
            <polyline id="Stroke-36" stroke="#C4E7F1" stroke-width="4" points="73.76 84.54 51.44 59.51 29.12 84.54"></polyline>
        </g>
    </g>
</svg>