<?xml version="1.0" encoding="UTF-8"?>
<svg width="220px" height="220px" viewBox="0 0 220 220" version="1.1" xmlns="http://www.w3.org/2000/svg" xmlns:xlink="http://www.w3.org/1999/xlink">
    <title>experts</title>
    <g id="experts" stroke="none" stroke-width="1" fill="none" fill-rule="evenodd">
        <g transform="translate(21.000000, 20.901699)">
            <path d="M88.9998259,0.0983005383 C39.8793372,0.0983005383 0,39.9785861 0,89.0983005 C0,138.219756 39.8793372,178.098301 88.9998259,178.098301 C138.120141,178.098301 178,138.219756 178,89.0983005 C178,39.9785861 138.120141,0.0983005383 88.9998259,0.0983005383 Z" id="Fill-9" fill="#BA0A87"></path>
            <path d="M88.9998259,0.0983005383 C39.8793372,0.0983005383 0,39.9785861 0,89.0983005 C0,138.219756 39.8793372,178.098301 88.9998259,178.098301 C138.120141,178.098301 178,138.219756 178,89.0983005 C178,39.9785861 138.120141,0.0983005383 88.9998259,0.0983005383 Z" id="Stroke-10" stroke="#E2B3D5" stroke-width="4"></path>
            <polyline id="Fill-11" fill="#BA0A87" points="64 149.098301 114 77.1098985 89 41.0983005 64 77.1098985 114 149.098301"></polyline>
            <polyline id="Stroke-12" stroke="#E2B3D5" stroke-width="4" points="64 149.098301 114 77.1098985 89 41.0983005 64 77.1098985 114 149.098301"></polyline>
        </g>
    </g>
</svg>