<?xml version="1.0" encoding="UTF-8"?>
<svg version="1.1" xmlns="http://www.w3.org/2000/svg" xmlns:xlink="http://www.w3.org/1999/xlink">
    <g id="Artboard-Copy" stroke="none" stroke-width="1" fill="none" fill-rule="evenodd">
        <text id="Pacific-Data-Fale-o" font-family="Newzald-Bold, Newzald" font-size="24.5" font-weight="bold" fill="#FFFFFF">
            <tspan x="56" y="22">Pacific Data Fale </tspan>
            <tspan x="56" y="49">o Aotearoa</tspan>
        </text>
        <g id="Group-15" transform="translate(6.000000, 7.000000)">
            <path d="M1,1 C2.28216337,2.23950845 20.1161462,19.4725463 21.4143489,20.7269975 L21.4589542,20.7703558 C27.9725156,27.8468222 34.4866452,34.9232886 41,42 C34.184197,35.147184 27.3681358,28.294613 20.5525394,21.441797 C14.0353362,14.627979 7.51751313,7.81386701 1,1" id="Fill-1" fill="#FFFFFF"></path>
            <path d="M41,1 C39.7178833,2.23950845 21.8838572,19.4725463 20.5856237,20.7269975 C20.5856237,20.7269975 20.5410441,20.7703558 20.5407341,20.7703558 C14.0273541,27.8468222 7.51338003,34.9232886 1,42 C7.81572608,35.147184 14.6317363,28.294613 21.4474365,21.441797 C27.9647166,14.627979 34.4824874,7.81386701 41,1" id="Fill-2" fill="#FFFFFF"></path>
            <path d="M0.020713837,1 C-0.0456177314,2.13605304 -0.365930409,10.4392788 7.28631817,16.291741 C12.7453154,20.4665123 19.0311337,20.9242134 21,21 C14.0069133,14.3334659 7.01380057,7.66673293 0.020713837,1 Z" id="Stroke-3" stroke="#FFFFFF"></path>
            <path d="M1,0 C2.34907715,0.136798954 12.1784017,1.27299714 17.7061553,8.68883627 C21.649824,13.978973 21.0706163,19.3341697 20.8099303,21 C14.20693,14 7.60331895,7 1,0 Z" id="Stroke-4" stroke="#FFFFFF"></path>
            <path d="M1.05296681,41 C0.951132493,39.8920717 0.366847249,31.7904064 7.68966291,25.9041122 C12.9132995,21.7054425 19.0698903,21.1182211 21,21 C14.350683,27.6667476 7.70197788,34.3334952 1.05296681,41 Z" id="Stroke-5" stroke="#FFFFFF"></path>
            <path d="M2,42 C3.31775433,41.8366343 12.9168542,40.5095914 18.0894787,33.1256579 C21.7788679,27.8582064 21.0333958,22.6256579 20.7222268,21 C14.481606,27.9997576 8.24064676,35 2,42 Z" id="Stroke-6" stroke="#FFFFFF"></path>
            <path d="M41.9793152,1 C42.045518,2.13605727 42.3661474,10.439314 34.7138785,16.291798 C29.2548705,20.4665103 22.9685868,20.9242132 21,21 C27.9928627,14.3335156 34.9864784,7.66675778 41.9793152,1 Z" id="Stroke-7" stroke="#FFFFFF"></path>
            <path d="M41,0 C39.6510293,0.136799437 29.8216001,1.27300164 24.2937677,8.68911436 C20.3504448,13.9790224 20.9293073,19.3341638 21.1900198,21 C27.7933642,14.0000495 34.3966821,7.00002474 41,0 Z" id="Stroke-8" stroke="#FFFFFF"></path>
            <path d="M40.9468828,41 C41.0491264,39.8918424 41.6330112,31.7905182 34.3102285,25.9040527 C29.0868814,21.705434 22.9301346,21.1182197 21,21 C27.6490969,27.6666667 34.2982448,34.3333333 40.9468828,41 Z" id="Stroke-9" stroke="#FFFFFF"></path>
            <path d="M40,42 C38.6824353,41.8366343 29.0831472,40.5095914 23.9107358,33.1256579 C20.2209557,27.8584488 20.966777,22.6256579 21.2776118,21 C27.5184252,28 33.7593428,35 40,42 Z" id="Stroke-10" stroke="#FFFFFF"></path>
            <path d="M41,13 C40.3752587,14.2359709 39.0774007,16.3408845 36.5101407,18.2757239 C34.4646627,19.8175352 32.3935741,20.6637526 31,21.1231486 C32.37262,21.5546877 34.7761279,22.4803219 37.0205401,24.3890147 C39.5368377,26.5293605 40.5726407,28.8158334 41,30 L41,13 Z" id="Fill-11" fill="#FFFFFF"></path>
            <path d="M11,0 L30,0 C28.6434005,0.575957372 26.5400659,1.64358567 24.6013709,3.48626174 C22.3667983,5.60989262 21.4067291,7.75968137 20.9786659,9 C20.5966386,7.85583573 19.6656545,5.67819371 17.3332193,3.56933717 C14.9859389,1.4469173 12.3766037,0.441292823 11,0" id="Fill-12" fill="#FFFFFF"></path>
            <path d="M1,29 C1.62497898,27.7640309 2.92258839,25.6591203 5.48979064,23.7240393 C7.53536218,22.1823768 9.60651857,21.3361607 11,20.8767653 C9.62765388,20.4452269 7.22389454,19.519594 4.979439,17.6109772 C2.46314774,15.4708788 1.42725911,13.1841649 1,12 L1,29 Z" id="Fill-13" fill="#FFFFFF"></path>
            <path d="M31,42 L12,42 C13.3566202,41.4240426 15.460025,40.3564143 17.3988962,38.5134961 C19.63317,36.3901074 20.5935247,34.2403186 21.0212966,33 C21.4036381,34.1441643 22.3343026,36.3220485 24.6665965,38.430905 C27.014183,40.5530827 29.623402,41.5587072 31,42" id="Fill-14" fill="#FFFFFF"></path>
        </g>
    </g>
</svg>