<?xml version="1.0" encoding="UTF-8"?>
<svg width="107px" height="107px" viewBox="0 0 107 107" version="1.1" xmlns="http://www.w3.org/2000/svg" xmlns:xlink="http://www.w3.org/1999/xlink">
    <title>topics</title>
    <g id="Page-2" stroke="none" stroke-width="1" fill="none" fill-rule="evenodd">
        <g id="topics" transform="translate(2.000000, 2.050000)">
            <path d="M51.13,0 C22.9105,0 0,22.9108 0,51.1302 C0,79.3497 22.9105,102.2602 51.13,102.2602 C79.3494,102.2602 102.2602,79.3497 102.2602,51.1302 C102.2602,22.9108 79.3494,0 51.13,0 Z" id="Fill-1" fill="#5B1E6A"></path>
            <path d="M51.13,0 C22.9105,0 0,22.9108 0,51.1302 C0,79.3497 22.9105,102.2602 51.13,102.2602 C79.3494,102.2602 102.2602,79.3497 102.2602,51.1302 C102.2602,22.9108 79.3494,0 51.13,0 Z" id="Stroke-2" stroke="#E1B8E9" stroke-width="4"></path>
            <polyline id="Fill-3" fill="#5B1E6A" points="33.51 59.3702 51.13 41.7502 68.76 59.3702"></polyline>
            <polyline id="Stroke-4" stroke="#E1B8E9" stroke-width="4" points="33.51 59.3702 51.13 41.7502 68.76 59.3702"></polyline>
            <polyline id="Fill-5" fill="#5B1E6A" points="33.51 81.3502 51.13 63.7202 68.76 81.3502"></polyline>
            <polyline id="Stroke-6" stroke="#E1B8E9" stroke-width="4" points="33.51 81.3502 51.13 63.7202 68.76 81.3502"></polyline>
            <polyline id="Fill-7" fill="#5B1E6A" points="33.51 38.5502 51.13 20.92 68.76 38.5502"></polyline>
            <polyline id="Stroke-8" stroke="#E1B8E9" stroke-width="4" points="33.51 38.5502 51.13 20.92 68.76 38.5502"></polyline>
        </g>
    </g>
</svg>