<?xml version="1.0" encoding="UTF-8" standalone="no"?>
<!DOCTYPE svg PUBLIC "-//W3C//DTD SVG 1.1//EN" "http://www.w3.org/Graphics/SVG/1.1/DTD/svg11.dtd">
<svg width="100%" height="100%" viewBox="0 0 1200 600" version="1.1" xmlns="http://www.w3.org/2000/svg" xmlns:xlink="http://www.w3.org/1999/xlink" xml:space="preserve" xmlns:serif="http://www.serif.com/" style="fill-rule:evenodd;clip-rule:evenodd;">
    <rect x="0" y="0" width="1200" height="600" style="fill:rgb(1,33,105);"/>
    <path d="M0,0L600,300M0,300L600,0" style="fill-rule:nonzero;stroke:white;stroke-width:60px;"/>
    <clipPath id="_clip1">
        <path d="M0,0L0,150L700,150L700,300L600,300L0,0ZM0,300L0,400L300,400L300,0L600,0L0,300Z"/>
    </clipPath>
    <g clip-path="url(#_clip1)">
        <path d="M0,0L600,300M0,300L600,0" style="fill-rule:nonzero;stroke:rgb(200,16,46);stroke-width:40px;"/>
    </g>
    <path d="M300,0L300,400M0,150L700,150" style="fill-rule:nonzero;stroke:white;stroke-width:100px;"/>
    <path d="M300,0L300,400M0,150L700,150" style="fill-rule:nonzero;stroke:rgb(200,16,46);stroke-width:60px;"/>
    <path d="M0,300L600,300L600,0L1200,0L1200,600L0,600L0,300Z" style="fill:rgb(105,179,231);fill-rule:nonzero;"/>
    <g id="coa">
        <path d="M778.8,143.94L778.8,349.03C778.8,416.11 900,455.94 900,455.94C900,455.94 1021.2,416.107 1021.2,349.03L1021.2,143.94L778.8,143.94Z" style="fill:white;fill-rule:nonzero;"/>
        <path d="M883.2,216L883.2,308.344L778.8,308.344L778.8,341.944L883.2,341.944L883.2,449.544L900,455.94L916.8,449.544L916.8,341.944L1021.2,341.944L1021.2,308.344L916.8,308.344L916.8,216L883.2,216Z" style="fill:rgb(200,16,46);fill-rule:nonzero;"/>
        <rect x="778.8" y="143.94" width="242.4" height="79.2" style="fill:rgb(200,16,46);fill-rule:nonzero;"/>
        <g id="lion">
            <g>
                <ellipse cx="798.23" cy="192.212" rx="13.623" ry="10.962" style="fill:white;stroke:black;stroke-width:0.8px;stroke-miterlimit:3;"/>
                <ellipse cx="798.23" cy="186.525" rx="12.114" ry="6.123" style="fill:white;stroke:black;stroke-width:0.81px;stroke-miterlimit:3;"/>
                <ellipse cx="798.23" cy="198.769" rx="12.114" ry="6.123" style="fill:white;stroke:black;stroke-width:0.81px;stroke-miterlimit:3;"/>
                <ellipse cx="798.23" cy="192.213" rx="12.114" ry="6.123" style="fill:white;stroke:black;stroke-width:0.81px;stroke-miterlimit:3;"/>
            </g>
            <path d="M1015.2,207.43L1013.22,201.954C1013.22,201.954 1007.78,199.738 1007.37,196.852C1006.4,189.158 1003.65,186.274 999.538,185.174C995.413,184.075 992.67,185.863 992.67,185.863C991.429,187.65 985.244,187.65 981.811,187.784C978.377,187.924 978.318,186.292 978.318,186.292C975.65,186.312 974.528,184.351 974.528,184.351C972.782,180.864 971.483,179.559 970.62,179.118C975.077,179.184 978.433,177.127 983.464,171.848C988.957,166.076 992.879,168.308 992.879,168.308C990.213,173.697 993.766,173.221 993.766,173.221C1001.05,169.515 994.726,160.17 992.529,160.583C990.331,160.993 989.704,159.514 989.704,159.514C989.771,161.191 987.264,161.858 987.264,161.858C989.145,151.184 982.775,148.354 982.775,148.354C981.811,149.316 981.259,151.238 981.259,151.238C979.476,157.696 973.569,156.735 966.969,153.573C960.377,150.415 942.79,156.873 937.297,159.07C931.797,161.269 921.769,164.704 912.701,159.62C903.637,154.533 901.432,155.496 897.862,156.459C894.288,157.419 887.974,158.935 885.64,157.695C883.302,156.459 880.638,156.382 880.638,156.382C881.274,156.027 880.28,154.536 880.28,154.536C877.533,150.828 880.638,148.555 880.638,148.555C880.638,148.555 875.523,149.995 877.557,158.724L878.492,160.033C878.492,160.033 879.177,162.779 880.693,163.604L880.638,164.205C880.638,164.205 881.931,163.604 882.338,165.389C882.756,167.174 884.678,165.527 885.502,164.017C885.502,164.017 884.126,171.986 894.021,173.909C894.021,173.909 892.915,172.671 893.329,171.847C893.739,171.023 892.095,170.33 892.234,169.098C892.37,167.865 889.765,167.315 891.82,166.349C893.878,165.387 894.846,163.463 899.24,166.074C903.634,168.685 907.074,168.138 907.074,168.138C907.074,168.138 904.393,162.636 905.87,162.639C907.347,162.641 913.993,170.869 917.264,170.462C920.536,170.059 926.857,166.349 930.018,167.723C930.018,167.723 930.289,166.074 942.378,164.012C954.47,161.951 969.384,155.925 974.977,161.205C974.977,161.205 975.631,165.387 977.964,166.488C977.964,166.488 977.546,175.142 962.579,170.33L957.149,168.902C957.149,168.902 956.315,166.273 927.845,173.595C927.845,173.595 926.17,174.18 925.07,175.007C923.968,175.827 922.456,174.593 916.823,176.652C911.195,178.717 890.169,185.587 877.259,183.111L877.242,183.146C874.398,182.297 871.734,182.736 871.626,182.287C871.487,181.737 873.139,182.426 873.139,182.426C872.179,181.325 871.765,181.236 871.765,181.236C860.91,180.045 862.829,175.142 862.829,175.142L863.382,176.654C865.169,174.32 862.69,168.824 862.69,168.824L862.585,168.842C862.558,168.673 862.526,168.505 862.484,168.342L863.382,167.723C868.604,163.325 874.651,162.5 874.651,162.5C871.076,158.106 863.517,160.442 863.517,160.442C863.656,155.084 861.459,148.9 861.459,148.9C854.036,149.725 849.781,155.906 849.781,155.906C849.506,150.412 842.497,147.254 842.497,147.254C845.105,150.412 843.461,157.968 843.461,157.968L843.735,158.106C843.301,158.095 843.047,158.106 843.047,158.106L842.891,159.726L842.634,159.618C842.634,159.618 840.026,160.578 837.005,167.448C837.005,167.448 836.699,169.071 835.53,170.535C835.52,170.346 835.541,170.174 835.517,169.976C835.517,169.976 832.141,174.399 824.341,169.976C824.341,169.976 813.743,163.688 810.018,163.921C806.293,164.153 803.844,165.9 804.081,166.947C804.081,166.947 795.577,166.248 792.668,171.137C792.668,171.137 786.265,173.466 791.738,178.706C791.738,178.706 792.471,180.984 794.064,182.204C794.064,182.204 793.838,177.42 794.997,178.826C794.997,178.826 795.299,179.298 795.871,179.628C796.023,180.299 796.537,182.162 797.675,183.111L798.494,182.851C798.619,181.658 798.877,180.151 799.142,179.517C799.267,179.534 799.367,179.549 799.412,179.552C799.376,179.587 799.343,179.607 799.308,179.639L800.821,181.968L802.566,181.037C803.383,180.918 804.429,181.736 804.429,181.736L806.409,180.105C806.397,180.087 806.385,180.084 806.373,180.065C808.323,180.391 808.856,176.611 808.856,176.611C810.608,177.072 812.246,176.556 813.641,175.711C814.49,178.845 821.432,182.207 821.432,182.207C821.432,182.207 821.552,182.196 821.731,182.181C821.143,182.557 820.794,182.839 820.794,182.839C823.952,185.041 829.861,184.49 829.861,184.49C827.39,185.454 827.736,190.027 827.736,190.027C826.292,190.62 826.151,192.045 826.151,192.045C830.96,193.964 834.246,192.375 834.246,192.375C834.51,193.94 834.121,194.107 834.121,194.107C832.199,198.228 831.374,202.212 831.374,202.212C831.416,202.23 831.465,202.239 831.506,202.254C831.447,202.362 831.374,202.466 831.329,202.578C831.329,202.578 822.945,205.488 819.22,209.564C819.22,209.564 818.869,208.398 817.82,208.398C816.773,208.398 813.512,205.723 811.998,205.255C810.487,204.792 808.273,205.723 807.69,205.026C807.163,204.39 807.4,199.62 806.392,198.851C806.396,198.851 806.411,198.855 806.411,198.855L805.362,195.945C804.664,197.457 801.754,197.106 801.754,197.106C801.638,197.176 801.191,197.502 800.557,197.975C799.976,198.006 799.308,197.806 799.308,197.806C799.009,197.867 798.714,198.706 798.497,199.521C798.38,199.607 798.262,199.697 798.144,199.787L798.144,198.97C797.564,199.435 796.399,198.737 795.931,198.737C795.703,198.737 795.421,199.404 795.192,200.089C794.008,200.309 792.438,200.368 792.438,200.368C791.972,200.601 792.319,204.21 792.319,204.21C788.945,206.075 790.573,208.867 790.573,208.867C792.437,217.95 807.923,213.874 809.088,215.041C810.25,216.207 812.931,216.436 814.329,216.436C815.723,216.436 817.468,219.814 819.45,220.163C821.431,220.513 819.45,217.486 828.633,215.292C837.811,213.099 840.872,209.334 840.872,209.334C843.747,208.78 844.547,205.285 844.762,203.874C844.79,204.525 844.866,205.245 844.971,206.064C845.385,209.225 843.201,210.376 843.201,210.376L851.156,207.988C854.313,207.163 853.902,204.413 853.902,204.413C856.924,213.07 862.421,213.619 862.421,213.619C863.52,210.321 863.385,209.358 863.385,209.358L865.857,209.224C865.958,207.36 864.312,205.998 863.36,205.365L867.23,207.712L868.738,207.437C868.738,208.811 870.8,210.045 870.8,210.045L871.078,208.263C872.865,210.598 876.161,209.772 876.161,209.772C876.095,209.357 875.994,208.927 875.87,208.489C882.91,212.835 894.156,207.3 894.156,207.3C897.177,207.987 897.59,206.2 897.59,206.2C901.024,206.61 901.821,204.263 901.821,204.263C909.904,203.563 915.593,197.817 915.593,197.817C919.574,197.542 919.703,194.695 919.703,194.695C919.703,194.695 923.694,195.483 927.543,190.673C936.471,177.898 949.823,184.549 949.823,184.549L942.103,185.038C921.909,184.902 930.281,198.636 930.281,198.636L931.526,198.504C933.449,198.915 940.041,204.137 937.611,208.026C937.572,208.094 937.52,208.157 937.475,208.219C933.358,213.855 925.733,208.479 923.56,203.724C921.359,198.917 916.961,200.017 916.961,200.017C916.961,200.017 905.56,201.941 910.231,211.008L910.401,211.013C910.487,213.226 911.876,215.747 915.943,218.253C918.227,221.484 925.737,221.821 931.253,220.626C933.819,220.066 947.365,214.242 947.365,214.242C948.358,211.293 951.724,211.972 954.746,207.713C957.767,203.454 950.486,201.941 948.838,199.608C947.187,197.269 949.252,197.683 949.252,197.683C955.844,201.256 956.393,189.851 956.393,189.851C957.082,196.444 962.851,198.231 962.851,198.231C966.425,194.663 963.818,187.379 963.818,187.379C972.337,202.629 977.496,200.201 977.496,200.201C972.909,197.361 975.218,193.561 975.218,193.561C979.335,209.772 996.24,195.623 996.24,195.623C995.416,197.955 996.244,199.328 997.753,200.84C999.263,202.352 1001.05,203.04 1000.23,205.788C999.402,208.535 991.576,207.987 991.576,207.987C991.576,207.987 983.878,207.577 984.569,214.034C984.972,215.543 990.059,216.092 991.983,215.682C991.983,215.682 991.189,215.855 994.033,216.235C994.986,216.357 996.137,216.378 997.308,216.339C1000.59,216.239 1004.08,215.682 1004.08,215.682C1008.47,214.723 1007.78,213.206 1007.78,213.206C1014.51,211.967 1015.2,207.431 1015.2,207.431L1015.2,207.43Z" style="fill:rgb(254,221,0);fill-rule:nonzero;stroke:black;stroke-width:1.2px;stroke-miterlimit:3;"/>
            <g>
                <path d="M791.954,179.295C791.959,179.288 792.315,178.447 792.993,178.346C793.516,178.268 794.151,178.655 794.822,179.47L795.189,179.194C795.174,179.167 793.376,176.548 794.092,174.699C794.412,173.875 795.206,173.309 796.449,173.03L796.348,172.577C794.946,172.899 794.043,173.558 793.663,174.535C793.521,174.899 793.461,175.286 793.461,175.671C793.461,176.575 793.779,177.49 794.106,178.193C793.699,177.938 793.303,177.832 792.922,177.89C792.232,177.994 791.896,178.491 791.714,178.815L791.954,179.295Z" style="fill-rule:nonzero;"/>
                <path d="M1004,215.28C999.41,216.008 992.672,216.412 992.136,215.023C992.042,214.776 992.026,213.785 995.784,211.338L995.346,210.665C992.21,212.707 990.948,214.183 991.386,215.311C992.348,217.811 1002.19,216.383 1004.15,216.07L1004,215.28Z" style="fill-rule:nonzero;"/>
                <path d="M916.2,217.93C915.154,216.329 915.624,214.137 917.598,211.407L916.948,210.938C914.754,213.956 914.276,216.461 915.526,218.372L916.2,217.93Z" style="fill-rule:nonzero;"/>
                <path d="M910,211.02C910.101,213.788 912.056,216.359 915.8,218.652L916.221,217.966C912.716,215.822 910.898,213.475 910.803,210.992C910.665,207.18 914.693,204.24 914.732,204.209L914.262,203.555C914.081,203.683 909.844,206.771 910,211.02Z" style="fill-rule:nonzero;"/>
                <path d="M988.29,212.05C987.031,213.909 987.452,216.16 987.469,216.255L988.258,216.1C988.251,216.078 987.886,214.074 988.961,212.496C989.606,211.547 990.647,210.932 992.058,210.664L991.913,209.874C990.278,210.184 989.063,210.915 988.29,212.05Z" style="fill-rule:nonzero;"/>
                <path d="M808.92,176.89L808.672,176.828L808.638,177.083C808.631,177.108 808.28,179.547 807.174,180.21C806.864,180.395 806.531,180.416 806.146,180.275L804.268,179.133C803.893,178.803 803.572,178.56 803.03,178.719C802.922,178.58 802.492,177.995 802.492,177.057C802.492,176.952 802.499,176.841 802.514,176.728C802.648,175.628 803.416,174.567 804.804,173.577L804.54,173.201C803.035,174.276 802.202,175.444 802.056,176.681C801.888,178.114 802.717,179.087 802.753,179.129L802.865,179.258L803.017,179.188C803.435,179.003 803.556,179.112 803.963,179.472L805.99,180.705C806.504,180.894 806.981,180.86 807.412,180.603C808.556,179.918 808.957,177.922 809.051,177.368C813.928,178.416 817.853,172.488 818.023,172.233L817.633,171.981C817.598,172.043 813.593,178.115 808.92,176.89Z" style="fill-rule:nonzero;"/>
                <path d="M797.23,175.98C796.986,176.968 797.153,177.937 797.717,178.862C798.256,179.74 798.786,180.206 799.34,180.28C800.014,180.373 800.553,179.873 801.028,179.435C801.374,179.111 801.702,178.81 801.972,178.83L802.391,179.119L802.752,178.832L802.005,178.372C801.533,178.337 801.137,178.704 800.715,179.098C800.294,179.484 799.862,179.891 799.401,179.827C799.001,179.772 798.569,179.365 798.111,178.621C797.614,177.806 797.464,176.952 797.675,176.09C798.201,173.915 800.802,172.316 800.83,172.301L800.594,171.908C800.477,171.976 797.802,173.617 797.23,175.98Z" style="fill-rule:nonzero;"/>
                <path d="M790.52,207.04C790.753,206.199 791.4,205.482 792.439,204.905C792.234,204.924 793.458,205.92 794.508,205.809C794.508,205.809 794.934,205.58 795.189,205.44C795.468,205.68 797.286,207.335 797.286,209.432C797.286,209.873 797.205,210.326 797.007,210.785L797.433,210.964C798.763,207.814 795.418,205.02 795.387,204.99L795.265,204.894L795.058,205.028L794.462,205.352C793.603,205.442 792.483,204.533 792.475,204.525C791.064,205.14 790.342,205.955 790.075,206.924L790.52,207.04Z" style="fill-rule:nonzero;"/>
                <path d="M806.05,199C805.046,199.085 802.248,199.619 801.335,201.071C801.005,201.598 800.956,202.178 801.196,202.804L801.563,203.781C802.434,206.124 803.339,208.546 804.326,209.093L804.549,208.692C803.711,208.228 802.799,205.78 801.993,203.621L801.628,202.644C801.441,202.15 801.472,201.716 801.723,201.316C802.473,200.126 804.988,199.551 806.088,199.46C806.729,199.408 806.938,201.773 807.065,203.187L807.522,203.145C807.339,201.062 807.146,198.909 806.05,199Z" style="fill-rule:nonzero;"/>
                <path d="M798.38,201.3C797.792,201.826 797.911,202.618 797.918,202.652C797.923,202.87 798.184,208.72 800.962,209.929L801.145,209.508C798.631,208.412 798.378,202.663 798.374,202.607C798.373,202.572 798.291,201.991 798.691,201.641C799.112,201.266 799.95,201.238 801.111,201.557L801.234,201.115C799.893,200.746 798.933,200.807 798.38,201.3Z" style="fill-rule:nonzero;"/>
                <path d="M796.18,201.78C794.951,202.636 795.002,205.078 795.003,205.18L795.462,205.172C795.462,205.146 795.417,202.869 796.443,202.157C796.826,201.893 797.33,201.882 797.944,202.13L798.114,201.705C797.349,201.393 796.696,201.418 796.18,201.78L796.18,201.78Z" style="fill-rule:nonzero;"/>
            </g>
            <g>
                <path d="M862.33,169.49C862.352,169.528 863.64,172.435 863.64,174.795C863.64,175.214 863.442,175.512 863.349,175.876C863.297,175.741 862.848,174.51 862.848,174.51L862.46,175.497C862.442,175.552 861.934,176.881 862.841,178.38C864.041,180.357 867.028,181.623 871.725,182.138L871.723,182.138C871.723,182.142 871.782,182.193 871.789,182.203C871.594,182.229 871.448,182.283 871.404,182.325L871.215,182.485L871.24,182.886C871.362,183.373 871.918,183.397 873.024,183.439C873.211,183.45 873.514,183.494 873.729,183.505C874.004,183.582 874.286,183.658 874.286,183.658C874.286,183.658 874.209,183.57 874.192,183.55C875.263,183.624 876.466,183.888 877.773,184.376C877.484,184.452 876.778,184.628 876.778,184.628L877.94,185.086C878.028,185.121 886.588,188.56 890.131,191.389C889.125,192.261 884.832,195.469 877.395,193.636L876.149,193.33L876.994,194.295C877.046,194.353 881.89,199.909 882.895,203.278C881.207,203.295 874.709,203.236 872.439,201.307L871.851,201.842C871.882,201.891 874.966,206.418 875.655,209.947C874.771,210.063 872.655,210.15 871.403,208.514L870.826,207.763C870.826,207.763 870.593,209.28 870.513,209.8C869.908,209.344 869.146,208.663 869.146,207.933L869.146,207.453C869.146,207.453 867.553,207.742 867.313,207.786C867.101,207.658 864.463,206.058 863.548,205.503C863.224,205.293 863.013,205.173 862.943,205.138C862.939,205.134 862.908,205.116 862.908,205.116L862.881,205.1L862.491,205.806C862.491,205.806 862.939,206.073 863.068,206.154C863.874,206.679 865.254,207.824 865.393,209.342C864.798,209.377 862.945,209.478 862.945,209.478L862.991,209.904L862.991,209.971C862.991,210.223 862.912,211.275 862.143,213.65C860.985,213.374 856.774,211.906 854.285,204.776L853.51,204.968C853.514,204.987 853.523,205.082 853.523,205.233C853.523,205.882 853.294,207.512 851.058,208.093C851.045,208.097 846.907,209.341 844.606,210.03C845.037,209.414 845.43,208.569 845.43,207.345C845.43,207.085 845.413,206.805 845.379,206.508C845.239,205.472 845.155,204.609 845.155,203.889C845.155,202.388 845.524,201.494 846.561,200.858L846.199,200.142C846.102,200.18 836.581,203.961 831.86,202.392C832.076,201.47 832.876,198.23 834.488,194.776L834.28,194.974C834.589,194.842 834.905,194.359 834.644,192.808L834.558,192.28L834.074,192.513C834.043,192.528 831.022,193.876 826.657,192.277C826.746,191.919 826.978,191.276 827.892,190.897L828.16,190.789L828.134,190.497C828.134,190.486 828.124,190.284 828.124,189.966C828.124,188.787 828.308,186.026 830.004,185.364L829.824,184.587C829.769,184.594 824.663,185.002 821.567,183.28C822.379,182.72 824.086,181.688 826.072,181.402L826.39,181.357L826.412,181.039C826.416,181.023 826.423,180.93 826.423,180.78C826.423,180.376 826.267,179.56 825.912,178.738C827.09,179.067 828.503,179.364 829.003,178.988L829.174,178.86L829.027,175.761L828.224,175.8C828.224,175.8 828.322,177.854 828.347,178.362C827.843,178.389 826.559,178.132 825.312,177.736L824.078,177.344L824.873,178.368C825.518,179.197 825.6,180.226 825.61,180.699C822.82,181.218 820.634,182.95 820.541,183.028L820.13,183.366L820.565,183.669C822.965,185.341 826.718,185.486 828.646,185.444C827.509,186.723 827.317,188.865 827.317,189.936C827.317,190.155 827.324,190.214 827.328,190.322C825.965,191.058 825.76,192.44 825.751,192.504L825.721,192.805L826.003,192.92C830.128,194.564 832.944,193.771 833.9,193.417C833.907,193.545 833.935,193.719 833.935,193.81C833.935,194.188 833.866,194.304 833.866,194.304C831.839,198.552 830.99,202.59 830.98,202.628L830.914,202.962L831.227,203.086C835.055,204.616 841.932,202.527 844.978,201.452C844.578,202.141 844.345,202.916 844.345,203.881C844.345,204.69 844.443,205.599 844.578,206.612C844.613,206.869 844.627,207.106 844.627,207.336C844.627,209.616 843.087,210.478 843.013,210.517L843.319,211.257L851.274,208.868C853.114,208.39 853.805,207.303 854.098,206.379C857.237,213.823 862.164,214.494 862.383,214.519L862.703,214.546L862.804,214.244C863.569,211.957 863.746,210.795 863.781,210.235C864.312,210.211 866.243,210.103 866.243,210.103L866.263,209.742C866.267,209.679 866.267,209.619 866.267,209.56C866.267,208.902 866.062,208.32 865.778,207.796C866.275,208.096 867.154,208.63 867.154,208.63C867.154,208.63 868.065,208.465 868.472,208.39C868.816,209.72 870.395,210.764 870.599,210.889L871.111,211.196C871.111,211.196 871.299,209.984 871.378,209.456C873.343,211.214 876.131,210.691 876.263,210.658L876.615,210.568L876.563,210.211C876.164,207.523 874.359,204.325 873.298,202.615C876.789,204.202 883.148,204.086 883.461,204.076L883.935,204.06L883.842,203.595C883.278,200.77 879.748,196.323 878.271,194.554C886.473,196.096 890.878,191.841 891.067,191.648L891.355,191.342L891.038,191.064C888.281,188.662 881.926,185.874 879.373,184.807C879.513,184.772 880.267,184.581 880.267,184.581L879.384,184.087C877.249,182.887 874.986,182.738 873.456,182.672L873.449,182.66C872.478,181.549 871.985,181.371 871.86,181.344C866.314,180.732 864.281,179.178 863.543,177.978C863.481,177.879 863.512,177.812 863.466,177.716C863.585,177.556 863.71,177.398 863.71,177.398C864.245,176.701 864.436,175.768 864.436,174.781C864.436,172.234 863.142,169.324 863.069,169.156L862.331,169.49L862.33,169.49Z" style="fill-rule:nonzero;"/>
                <path d="M836.8,167.86C836.783,167.939 836.192,170.979 833.604,172.403C831.657,173.474 829.084,173.385 825.965,172.137L825.614,171.998L825.651,172.373C825.659,172.451 825.864,174.237 827.548,175.545C828.95,176.637 830.956,177.02 833.47,176.745C832.629,177.743 829.926,181.197 829.926,184.547C829.926,184.724 829.937,184.901 829.954,185.075C830.298,185.322 834.533,186.47 836.498,183.959C836.567,185.036 836.877,188.481 838.222,189.828C838.959,190.562 839.133,191.633 839.133,192.489C839.133,193.26 838.986,193.856 838.986,193.868L838.834,194.481L839.345,194.109C839.508,193.99 843.402,191.138 844.647,187.402C844.643,187.412 845.27,186.465 846.472,186.077C846.447,186.24 846.426,186.407 846.426,186.64C846.426,188.084 847.059,190.704 851.262,192.311L851.607,192.443L851.576,192.076C851.572,192.068 851.548,191.78 851.548,191.35C851.548,190.295 851.694,188.357 852.699,187.353C853.36,186.693 853.558,185.949 853.558,185.304C853.558,184.797 853.446,184.386 853.332,184.084C854.181,184.299 856.187,184.946 857.004,186.474C858.19,188.697 862.342,186.928 862.52,186.854L862.377,186.417C862.36,186.421 860.631,186.808 859.54,186.059C859.06,185.729 858.772,185.222 858.671,184.548L858.479,182.238C858.437,181.192 858.292,180.527 857.766,179.968C858.316,179.918 859.418,179.937 859.884,180.969C860.618,182.585 863.135,182.742 863.24,182.751L864.101,182.796L863.378,182.328C863.354,182.314 861.18,180.872 861.556,178.992L861.869,177.616C862.464,175.136 863.454,170.984 862.648,168.435L862.21,168.575C862.409,169.211 862.492,169.965 862.492,170.771C862.492,173.031 861.852,175.715 861.42,177.509L861.104,178.904C861.065,179.085 861.052,179.268 861.052,179.442C861.052,180.659 861.842,181.588 862.457,182.147C861.717,181.988 860.691,181.635 860.306,180.777C859.701,179.451 858.077,179.39 857.302,179.547L856.76,179.656L857.222,179.963C857.951,180.45 857.973,181.017 858.024,182.256L858.219,184.614C858.334,185.418 858.692,186.033 859.28,186.438C859.794,186.789 860.396,186.838 860.945,186.878C859.712,187.199 858.021,187.4 857.414,186.258C856.269,184.126 853.122,183.556 852.99,183.531L852.51,183.448L852.75,183.869C852.776,183.915 853.108,184.521 853.108,185.291C853.108,185.837 852.941,186.462 852.375,187.026C851.259,188.152 851.088,190.193 851.088,191.322C851.088,191.543 851.099,191.574 851.103,191.709C847.508,190.198 846.872,187.96 846.872,186.693C846.872,186.154 846.976,185.795 846.99,185.748L847.095,185.394L846.73,185.456C844.984,185.744 844.258,187.166 844.227,187.226C843.228,190.217 840.518,192.585 839.536,193.374C839.567,193.125 839.602,192.833 839.602,192.479C839.602,191.544 839.4,190.353 838.552,189.503C837.123,188.074 836.928,183.53 836.928,183.484L836.897,182.663L836.498,183.376C834.916,186.209 830.298,184.848 830.253,184.836C830.058,181.257 834.119,176.676 834.161,176.63L834.586,176.158L833.96,176.25C831.308,176.634 829.248,176.279 827.837,175.19C826.732,174.333 826.335,173.242 826.193,172.691C829.269,173.837 831.849,173.901 833.835,172.804C836.609,171.27 837.218,168.129 837.242,167.997C840.155,161.391 842.7,160.348 842.728,160.341L842.568,159.91C842.453,159.95 839.829,160.983 836.8,167.86L836.8,167.86Z" style="fill-rule:nonzero;"/>
                <path d="M843.45,158.07L843.256,158.077L840.892,161.317L841.594,161.387C854.423,162.635 861.207,170.375 861.273,170.455L861.569,170.799L863.895,168.272L863.724,168.012C857.219,157.768 843.589,158.065 843.45,158.07L843.45,158.07ZM843.67,158.874C845.255,158.878 856.941,159.239 862.859,168.205C862.569,168.518 861.924,169.224 861.579,169.602C860.192,168.164 853.617,162.02 842.342,160.696C842.779,160.094 843.506,159.097 843.67,158.874Z" style="fill-rule:nonzero;"/>
                <path d="M841.6,164.84C840.504,166.335 839.486,168.547 839.486,169.582C839.486,169.78 839.524,169.936 839.608,170.035C839.615,170.045 839.654,170.048 839.667,170.064C838.331,171.261 837.536,173.26 837.536,175.52C837.536,176.763 837.755,178.058 838.217,179.293L838.474,179.988C839.733,183.412 840.818,186.372 846.262,184.629C851.506,182.954 851.711,182.618 853.032,180.44L853.377,179.876C854.097,178.706 854.883,178.472 855.72,178.224C856.719,177.924 857.754,177.616 858.662,175.824L859.545,174.5C860.498,173.187 861.687,171.56 861.83,169.477L861.37,169.446C861.238,171.396 860.091,172.964 859.173,174.226L858.251,175.614C857.43,177.23 856.536,177.498 855.587,177.781C854.704,178.044 853.797,178.315 852.983,179.634L852.635,180.2C851.366,182.296 851.204,182.566 846.123,184.194C841.096,185.8 840.177,183.294 838.905,179.83L838.648,179.128C837.215,175.31 838.335,171.459 840.198,170.079L840.838,169.604C840.838,169.604 840.045,169.693 839.951,169.705C839.941,169.666 839.931,169.633 839.931,169.573C839.931,168.949 840.612,166.962 841.968,165.109C843.126,163.531 845.859,161.967 845.888,161.952L845.658,161.553C845.543,161.622 842.813,163.183 841.6,164.84Z" style="fill-rule:nonzero;"/>
                <path d="M839.16,178.65C840.06,179.274 841.326,179.231 842.852,178.65C842.859,179.194 842.981,180.349 843.93,181.188C845.046,182.176 846.895,182.366 849.43,181.762L849.322,181.316C846.947,181.883 845.233,181.723 844.235,180.847C843.163,179.902 843.313,178.397 843.317,178.384L843.359,177.99L842.994,178.145C841.457,178.807 840.254,178.847 839.419,178.27C837.924,177.23 838.036,174.515 838.039,174.484L837.58,174.462C837.578,174.586 837.452,177.464 839.16,178.65Z" style="fill-rule:nonzero;"/>
                <path d="M842.07,174.99C841.414,175.146 841.243,175.696 841.243,176.12C841.243,176.222 841.254,176.317 841.267,176.399C841.382,177.581 842.665,178.368 843.83,178.705C844.963,179.033 846.358,179.054 846.907,178.349C847.127,178.067 847.286,177.559 846.806,176.738C845.057,173.762 842.226,174.928 842.07,174.99ZM843.958,178.261C842.939,177.97 841.816,177.308 841.726,176.328C841.704,176.234 841.594,175.576 842.174,175.438L842.22,175.423C842.324,175.376 844.831,174.287 846.41,176.974C846.691,177.452 846.737,177.818 846.542,178.066C846.204,178.506 845.088,178.592 843.958,178.261ZM842.024,175.007C842.028,175.003 842.07,174.989 842.07,174.989L842.024,175.007Z" style="fill-rule:nonzero;"/>
                <path d="M843.65,180.98C843.355,183.494 843.535,183.554 843.716,183.61L843.876,183.661L844.056,183.448L845.512,181.528L843.684,180.662L843.65,180.98ZM844.071,181.356C844.332,181.478 844.572,181.592 844.808,181.704C844.61,181.957 844.242,182.448 843.963,182.815C843.97,182.436 844.016,181.902 844.071,181.356Z" style="fill-rule:nonzero;"/>
                <path d="M839.86,178.96L839.763,181.336L841.758,178.923L839.871,178.714L839.86,178.96ZM840.309,179.226C840.485,179.247 840.611,179.258 840.861,179.285C840.666,179.519 840.537,179.678 840.276,179.992C840.296,179.622 840.303,179.417 840.309,179.226Z" style="fill-rule:nonzero;"/>
                <path d="M838.53,178.2C838.547,178.231 840.014,181.1 840.275,182.147C840.442,182.812 841.29,183.569 842.302,183.944C843.31,184.324 844.255,184.262 844.961,183.77L846.286,182.669C846.727,182.244 846.874,182.125 847.231,182.186L847.308,181.733C846.707,181.632 846.414,181.912 845.969,182.336L844.699,183.394C843.917,183.94 842.96,183.707 842.46,183.515C841.514,183.164 840.829,182.486 840.718,182.034C840.443,180.94 838.997,178.115 838.938,177.994L838.53,178.2Z" style="fill-rule:nonzero;"/>
                <path d="M840.44,169.6C838.82,170.348 838.135,172.313 838.107,172.396L838.542,172.547C838.549,172.528 839.196,170.678 840.634,170.016C841.336,169.695 842.122,169.706 842.978,170.042L843.148,169.617C842.175,169.224 841.264,169.221 840.44,169.6Z" style="fill-rule:nonzero;"/>
                <path d="M851.33,174.76C851.458,174.856 854.518,177.174 852.759,180.003L853.149,180.246C855.134,177.058 851.636,174.416 851.605,174.388L851.33,174.76Z" style="fill-rule:nonzero;"/>
                <path d="M842.13,175.21C842.13,175.21 841.654,176.939 844.087,177.55C844.087,177.55 841.799,177.531 841.654,176.939C841.5,176.349 841.667,175.04 842.13,175.21Z" style="fill-rule:nonzero;"/>
                <path d="M849.57,177.28C849.57,177.43 849.448,177.554 849.299,177.554C849.152,177.554 849.028,177.43 849.028,177.28C849.028,177.132 849.152,177.009 849.299,177.009C849.449,177.009 849.57,177.132 849.57,177.28Z" style="fill-rule:nonzero;"/>
                <path d="M849.84,178.36C849.84,178.51 849.718,178.635 849.569,178.635C849.42,178.635 849.301,178.51 849.301,178.36C849.301,178.214 849.42,178.09 849.569,178.09C849.718,178.09 849.84,178.215 849.84,178.36Z" style="fill-rule:nonzero;"/>
                <circle cx="848.01" cy="177.825" r="0.27"/>
                <path d="M848.75,179.45C848.75,179.596 848.628,179.718 848.479,179.718C848.332,179.718 848.211,179.596 848.211,179.45C848.211,179.299 848.334,179.175 848.479,179.175C848.628,179.175 848.75,179.298 848.75,179.45Z" style="fill-rule:nonzero;"/>
                <path d="M841.65,172.13C841.65,172.28 841.529,172.402 841.375,172.402C841.229,172.402 841.104,172.279 841.104,172.13C841.104,171.984 841.229,171.859 841.375,171.859C841.529,171.859 841.65,171.984 841.65,172.13Z" style="fill-rule:nonzero;"/>
                <circle cx="841.65" cy="173.22" r="0.27"/>
                <circle cx="840.09" cy="172.68" r="0.27"/>
                <path d="M840.83,174.3C840.83,174.446 840.705,174.571 840.555,174.571C840.409,174.571 840.288,174.446 840.288,174.3C840.288,174.149 840.41,174.025 840.555,174.025C840.704,174.026 840.83,174.149 840.83,174.3Z" style="fill-rule:nonzero;"/>
                <path d="M845.57,164.75C845.57,164.75 849.088,166.915 845.702,170.978C845.702,170.978 847.368,169.741 847.538,167.616C847.716,165.493 846.331,163.8 845.57,164.75Z" style="fill-rule:nonzero;"/>
                <path d="M859.07,170.59C857.937,171.172 856.306,170.094 855.489,169.076C854.676,168.057 852.99,167.796 851.94,169.656C850.892,171.52 849.38,172.218 849.38,172.218C849.38,172.218 850.857,171.346 852.378,169.715C853.89,168.088 854.763,169.395 856.248,170.181C857.732,170.967 857.965,171.14 859.011,170.733L859.07,170.59Z" style="fill-rule:nonzero;"/>
                <path d="M858.78,170.86C858.317,171.208 857.468,171.5 856.568,170.77C855.668,170.043 854.91,169.055 853.776,169.636C852.638,170.22 850.483,171.848 850.483,171.848C850.483,171.848 853.978,169.431 854.648,169.956C855.316,170.482 856.891,171.761 857.85,171.386C858.811,171.003 858.78,170.86 858.78,170.86Z" style="fill-rule:nonzero;"/>
                <path d="M856.1,172.34C854.995,171.496 853.888,173.329 852.957,173.1C852.026,172.863 851.268,171.321 851.268,171.321C851.268,171.321 852.144,172.952 853.364,172.573C854.588,172.196 855.433,171.438 856.188,172.018C856.945,172.603 856.1,172.34 856.1,172.34Z" style="fill-rule:nonzero;"/>
                <path d="M854.37,172.57C852.187,172.796 851.971,170.757 851.971,170.736C851.971,170.736 852.66,172.516 854.59,172.193L854.37,172.57Z" style="fill-rule:nonzero;"/>
                <path d="M854.3,171.18C854.443,171.732 854.412,171.983 853.827,171.983C853.239,171.983 852.84,171.787 852.84,171.217C852.84,170.646 854.214,170.825 854.3,171.18Z" style="fill-rule:nonzero;"/>
                <path d="M846.46,168.15C846.46,168.529 846.147,168.835 845.76,168.835C845.374,168.835 845.298,168.575 845.298,168.199C845.298,167.824 845.374,167.47 845.76,167.47C846.147,167.47 846.46,167.776 846.46,168.15Z" style="fill-rule:nonzero;"/>
                <path d="M844.05,165.71C844.05,165.71 847.79,165.75 845.938,170.43C845.938,170.43 847.363,168.1 846.469,166.424C845.572,164.75 844.164,165.172 844.164,165.172C844.164,165.172 843.821,165.489 844.05,165.71Z" style="fill-rule:nonzero;"/>
                <path d="M843.94,167.58C843.929,168.518 844.556,169.487 845.796,170.456L846.082,170.096C844.959,169.22 844.392,168.376 844.4,167.59C844.407,166.804 845.012,166.337 845.019,166.331L844.744,165.96C844.712,165.986 843.953,166.564 843.94,167.58Z" style="fill-rule:nonzero;"/>
                <path d="M844.77,168.37C844.93,168.909 845.347,169.316 846.014,169.582L846.185,169.157C845.657,168.947 845.329,168.639 845.212,168.244C844.975,167.448 845.615,166.52 845.622,166.512L845.25,166.245C845.214,166.293 844.471,167.366 844.77,168.37Z" style="fill-rule:nonzero;"/>
                <path d="M849.9,170.97C849.9,170.97 850.596,172.482 849.58,174.113C848.561,175.744 848.588,175.657 848.588,175.657C848.588,175.657 849.812,173.416 849.347,172.482C848.885,171.551 849.9,170.97 849.9,170.97Z" style="fill-rule:nonzero;"/>
                <path d="M864.45,186.76C868.292,187.484 876.96,194.28 877.05,194.35L877.548,193.714C877.183,193.432 868.633,186.729 864.6,185.97L864.45,186.76Z" style="fill-rule:nonzero;"/>
                <path d="M867.86,196.35C868.117,199.759 871.827,201.878 871.987,201.964L872.379,201.264C872.341,201.246 868.888,199.268 868.659,196.289L867.86,196.35Z" style="fill-rule:nonzero;"/>
                <path d="M858.65,197.06C858.65,200.884 862.234,205.51 862.388,205.707L863.02,205.21C862.986,205.167 859.453,200.608 859.453,197.06L858.65,197.06Z" style="fill-rule:nonzero;"/>
                <path d="M846.5,197.49C847.132,198.752 847.066,199.392 846.903,199.705C846.712,200.058 846.322,200.112 846.309,200.116L846.403,200.916C846.698,200.881 847.29,200.676 847.603,200.1C847.986,199.399 847.856,198.401 847.22,197.136L846.5,197.49Z" style="fill-rule:nonzero;"/>
            </g>
            <g>
                <path d="M791.86,178.63C791.86,178.63 792.093,181.19 794.072,182.709C794.072,182.709 793.839,179.909 794.422,178.749C794.422,178.748 793.376,177.584 791.86,178.63Z" style="fill:white;fill-rule:nonzero;stroke:black;stroke-width:0.36px;stroke-miterlimit:3;"/>
                <path d="M795.81,180.26C795.81,180.26 796.278,182.586 797.675,183.636L798.494,183.403C798.494,183.403 798.842,180.489 799.308,180.141C799.774,179.794 797.329,181.189 795.81,180.26Z" style="fill:white;fill-rule:nonzero;stroke:black;stroke-width:0.36px;stroke-miterlimit:3;"/>
                <path d="M799.31,180.14L800.823,182.469L802.568,181.538L802.22,178.746C802.22,178.746 801.174,178.509 799.31,180.14Z" style="fill:white;fill-rule:nonzero;stroke:black;stroke-width:0.36px;stroke-miterlimit:3;"/>
                <path d="M806.41,180.61L804.43,182.241C804.43,182.241 803.384,181.424 802.566,181.541L802.918,178.979C802.918,178.979 804.315,177.932 806.41,180.61Z" style="fill:white;fill-rule:nonzero;stroke:black;stroke-width:0.36px;stroke-miterlimit:3;"/>
                <path d="M792.32,204.71C792.32,204.71 791.972,201.1 792.439,200.868C792.439,200.868 793.833,201.333 794.416,200.749C794.416,200.749 795.232,203.662 794.998,204.826C794.767,205.989 793.37,205.527 792.32,204.71Z" style="fill:white;fill-rule:nonzero;stroke:black;stroke-width:0.36px;stroke-miterlimit:3;"/>
                <path d="M801.29,200.98C801.29,200.98 801.175,197.952 801.756,197.601C801.756,197.601 804.666,197.951 805.364,196.439L806.413,199.349C806.413,199.349 803.152,198.999 801.29,200.98Z" style="fill:white;fill-rule:nonzero;stroke:black;stroke-width:0.36px;stroke-miterlimit:3;"/>
                <path d="M798.15,201.56C798.15,201.56 798.731,198.417 799.315,198.301C799.315,198.301 800.828,198.765 801.294,198.181L801.179,202.027C801.179,202.026 801.294,200.395 798.15,201.56Z" style="fill:white;fill-rule:nonzero;stroke:black;stroke-width:0.35px;stroke-miterlimit:3;"/>
                <path d="M794.77,202.03C794.77,202.03 795.468,199.235 795.935,199.235C796.403,199.235 797.567,199.934 798.148,199.468L798.148,201.564C798.148,201.564 795.582,200.984 795.237,204.474L794.77,202.03Z" style="fill:white;fill-rule:nonzero;stroke:black;stroke-width:0.35px;stroke-miterlimit:3;"/>
            </g>
        </g>
        <g id="sugarcanes">
            <path d="M840.16,260C840.16,260 848.074,267.35 846.005,273.758C846.005,273.758 851.092,262.826 845.63,259.621C840.16,256.418 839.973,258.873 840.16,260L840.16,260Z" style="fill:rgb(0,173,80);fill-rule:nonzero;stroke:black;stroke-width:0.78px;stroke-miterlimit:4.8;"/>
            <path d="M830.17,267.15C830.17,267.15 828.1,269.983 830.358,272.056C830.358,272.056 827.91,275.63 829.798,278.651C829.798,278.651 828.287,281.854 828.665,285.247C828.665,285.247 827.344,290.522 830.17,292.976C830.17,292.976 833.188,294.485 834.509,293.165C834.509,293.165 837.146,289.208 835.448,285.056C835.448,285.056 837.333,281.666 835.26,277.331C835.26,277.331 835.827,274.88 834.13,272.057C834.13,272.057 835.26,270.169 834.316,268.663C834.316,268.663 830.549,264.702 830.17,267.15Z" style="fill:rgb(134,38,51);fill-rule:nonzero;stroke:black;stroke-width:0.78px;stroke-miterlimit:4.8;"/>
            <path d="M832.43,257.92C832.43,257.92 823.008,239.83 816.41,239.072C809.812,238.317 809.438,231.912 809.438,231.912C809.438,231.912 810.19,234.927 815.469,234.927C820.747,234.927 830.925,242.276 832.054,247.93C833.183,253.583 834.317,252.832 834.317,252.832L832.43,257.92L832.43,257.92Z" style="fill:rgb(0,173,80);fill-rule:nonzero;stroke:black;stroke-width:0.78px;stroke-miterlimit:4.8;"/>
            <path d="M832.43,256.6C832.43,256.6 835.824,233.795 850.716,233.416C865.601,233.037 860.705,234.546 864.283,232.095C864.283,232.095 854.298,237.376 848.075,238.127C841.858,238.881 836.767,250.939 836.956,253.206C837.143,255.466 833.565,259.803 831.868,258.297C830.171,256.788 832.431,256.6 832.431,256.6L832.43,256.6Z" style="fill:rgb(0,173,80);fill-rule:nonzero;stroke:black;stroke-width:0.78px;stroke-miterlimit:4.8;"/>
            <path d="M835.82,265.09C835.82,265.09 839.211,256.043 845.055,259.061C845.055,259.061 840.529,250.388 832.426,257.927C832.426,257.927 836.008,262.827 835.82,265.09L835.82,265.09Z" style="fill:rgb(0,173,80);fill-rule:nonzero;stroke:black;stroke-width:0.78px;stroke-miterlimit:4.8;"/>
            <path d="M824.51,256.03C824.51,256.03 829.412,276.2 821.871,282.417C821.871,282.417 822.058,272.056 817.536,265.835C813.015,259.612 822.058,252.832 824.51,256.03L824.51,256.03Z" style="fill:rgb(0,173,80);fill-rule:nonzero;stroke:black;stroke-width:0.78px;stroke-miterlimit:4.8;"/>
            <path d="M825.08,259.62C825.08,259.62 833.941,268.104 834.507,270.93C835.074,273.757 837.144,262.45 832.999,259.248C828.852,256.039 824.329,255.475 824.329,255.475L825.08,259.62Z" style="fill:rgb(0,173,80);fill-rule:nonzero;stroke:black;stroke-width:0.78px;stroke-miterlimit:4.8;"/>
            <path d="M808.74,281.85C808.74,281.85 809.543,285.41 811.728,286.099C811.728,286.099 811.841,288.745 813.796,289.548C813.796,289.548 812.759,291.732 814.487,293.108C814.487,293.108 814.139,297.475 815.749,298.397C815.749,298.397 819.66,298.168 821.034,297.017C821.034,297.017 821.84,294.149 819.66,291.27C819.66,291.27 820.001,288.512 817.817,287.021C817.817,287.021 818.507,283.339 815.748,281.963C815.748,281.963 815.291,278.972 813.564,277.481C813.565,277.48 810.234,282.191 808.74,281.85Z" style="fill:rgb(134,38,51);fill-rule:nonzero;stroke:black;stroke-width:0.78px;stroke-miterlimit:4.8;"/>
            <path d="M813.1,277.48C813.1,277.48 801.494,273.228 795.058,279.32C795.058,279.32 804.939,280.7 806.205,282.653C807.469,284.603 813.557,279.437 813.1,277.48L813.1,277.48Z" style="fill:rgb(0,173,80);fill-rule:nonzero;stroke:black;stroke-width:0.78px;stroke-miterlimit:4.8;"/>
            <path d="M809.54,284.72C809.54,284.72 808.622,283.917 807.474,283.111C806.324,282.308 796.558,279.664 795.175,289.087C795.175,289.087 791.611,279.78 796.783,278.514C801.958,277.248 806.095,280.238 809.54,284.72" style="fill:rgb(0,173,80);fill-rule:nonzero;stroke:black;stroke-width:0.78px;stroke-miterlimit:4.8;"/>
            <path d="M801.9,265.46C801.9,265.46 805.477,273.186 806.8,273.568C808.118,273.94 809.059,272.626 809.059,272.626C809.059,272.626 804.349,265.652 801.9,265.46Z" style="fill:rgb(0,173,80);fill-rule:nonzero;stroke:black;stroke-width:0.78px;stroke-miterlimit:4.8;"/>
            <path d="M799.26,253.59C799.26,253.59 796.242,243.602 792.664,246.24C789.083,248.879 790.025,256.038 790.025,256.038C790.025,256.038 782.862,248.692 787.007,242.846C791.159,237.004 799.26,243.412 799.26,253.59L799.26,253.59Z" style="fill:rgb(0,173,80);fill-rule:nonzero;stroke:black;stroke-width:0.78px;stroke-miterlimit:4.8;"/>
            <path d="M807.37,274.13C807.37,274.13 807.37,276.015 808.69,276.578C810.01,277.144 812.459,278.083 812.459,276.957C812.459,275.827 810.576,271.491 809.818,272.058C809.063,272.625 807.749,272.618 807.37,274.13Z" style="fill:rgb(134,38,51);fill-rule:nonzero;stroke:black;stroke-width:0.78px;stroke-miterlimit:4.8;"/>
            <path d="M805.11,262.45C805.11,262.45 804.733,253.782 810.384,250.574C810.384,250.574 811.518,250.768 812.084,249.073C812.084,249.073 807.556,260 808.877,265.466L808.69,266.221" style="fill:rgb(0,173,80);fill-rule:nonzero;stroke:black;stroke-width:0.78px;stroke-miterlimit:4.8;"/>
            <path d="M806.24,251.89C806.24,251.89 816.417,230.778 828.858,238.128C828.858,238.128 815.854,240.768 811.144,250.004L806.429,256.971L806.241,251.889L806.24,251.89Z" style="fill:rgb(0,173,80);fill-rule:nonzero;stroke:black;stroke-width:0.78px;stroke-miterlimit:4.8;"/>
            <path d="M800.77,259.62C800.77,259.62 797.753,245.486 795.869,243.604C793.983,241.718 790.779,239.645 787.008,242.848C787.008,242.848 793.607,237.003 800.58,241.906C807.551,246.807 806.044,254.534 806.044,254.534L805.293,264.336L800.58,260" style="fill:rgb(0,173,80);fill-rule:nonzero;stroke:black;stroke-width:0.78px;stroke-miterlimit:4.8;"/>
            <path d="M811.7,276.39C811.7,276.39 799.26,252.838 791.158,269.61C791.158,269.61 789.646,273.942 791.342,275.635C791.342,275.635 786.818,272.245 788.892,263.953C790.962,255.664 804.72,259.429 808.682,266.216C812.639,273 813.773,276.396 813.206,276.768C812.639,277.148 811.699,276.39 811.699,276.39L811.7,276.39Z" style="fill:rgb(0,173,80);fill-rule:nonzero;stroke:black;stroke-width:0.78px;stroke-miterlimit:4.8;"/>
            <path d="M846.76,283.18C846.76,283.18 855.81,264.52 861.084,273C861.084,273 862.59,277.145 860.327,278.845C860.327,278.845 856.75,274.51 853.547,279.787C850.342,285.062 851.662,284.689 851.662,284.689C851.662,284.689 848.268,285.631 846.76,283.18L846.76,283.18Z" style="fill:rgb(0,173,80);fill-rule:nonzero;stroke:black;stroke-width:0.78px;stroke-miterlimit:4.8;"/>
            <path d="M860.32,278.84C860.32,278.84 865.22,281.475 863.529,286.753C863.529,286.753 870.12,274.128 861.077,272.995C861.078,272.995 862.775,276.955 860.32,278.84Z" style="fill:rgb(0,173,80);fill-rule:nonzero;stroke:black;stroke-width:0.78px;stroke-miterlimit:4.8;"/>
            <path d="M860.89,266.03C860.89,266.03 872.766,269.42 873.142,274.514C873.142,274.514 875.218,264.709 868.431,261.694C868.432,261.695 860.324,263.016 860.89,266.03L860.89,266.03Z" style="fill:rgb(0,173,80);fill-rule:nonzero;stroke:black;stroke-width:0.78px;stroke-miterlimit:4.8;"/>
            <path d="M866.17,250.38C871.26,240.391 877.668,253.584 877.668,253.584C877.668,253.584 879.928,243.22 873.523,241.332C867.112,239.448 862.967,263.382 862.967,263.382L855.426,265.079C855.426,265.079 857.501,244.162 868.808,242.274L870.126,242.465" style="fill:rgb(0,173,80);fill-rule:nonzero;stroke:black;stroke-width:0.78px;stroke-miterlimit:4.8;"/>
            <path d="M857.12,256.41C857.12,256.41 849.961,241.71 845.059,240.204C840.157,238.696 847.701,236.434 850.716,239.26C853.727,242.084 859.381,245.668 858.817,253.208L857.12,256.41L857.12,256.41Z" style="fill:rgb(0,173,80);fill-rule:nonzero;stroke:black;stroke-width:0.78px;stroke-miterlimit:4.8;"/>
            <path d="M849.77,276.58C849.77,276.58 851.842,266.595 857.496,263.577C863.149,260.559 868.428,261.693 868.428,261.693C868.428,261.693 861.64,263.198 860.514,266.595C859.381,269.985 857.496,270.172 857.496,270.172L849.77,276.58L849.77,276.58Z" style="fill:rgb(0,173,80);fill-rule:nonzero;stroke:black;stroke-width:0.78px;stroke-miterlimit:4.8;"/>
            <path d="M846.76,283.18C846.76,283.18 843.557,289.212 844.308,290.152C844.308,290.152 840.918,295.052 842.236,297.502C842.236,297.502 845.63,300.141 847.138,299.008C847.138,299.008 851.091,293.546 849.962,290.528C849.962,290.528 852.6,286.95 851.662,284.69C851.662,284.69 847.706,284.877 846.76,283.18Z" style="fill:rgb(134,38,51);fill-rule:nonzero;stroke:black;stroke-width:0.78px;stroke-miterlimit:4.8;"/>
            <g>
                <path d="M830.18,272.41C830.392,272.518 832.296,273.442 833.576,273.015L834.492,272.232L833.772,271.875C833.302,272.806 831.23,272.038 830.538,271.695L830.18,272.41Z" style="fill-rule:nonzero;"/>
                <path d="M829.87,278.26L829.714,279.05C829.876,279.081 833.7,279.821 835.524,278.201L834.989,277.602C833.465,278.955 829.908,278.271 829.87,278.26Z" style="fill-rule:nonzero;"/>
                <path d="M828.9,284.92L828.428,285.57C828.474,285.605 832.918,288.77 835.762,285.314L835.139,284.802C832.777,287.67 829.058,285.035 828.9,284.92Z" style="fill-rule:nonzero;"/>
                <path d="M811.64,285.88L811.807,286.311C811.966,286.245 815.732,284.733 815.971,281.979L815.514,281.937C815.299,284.409 811.676,285.866 811.64,285.88Z" style="fill-rule:nonzero;"/>
                <path d="M813.77,289.32L813.802,289.778C813.949,289.768 817.425,289.507 818.032,287.077L817.584,286.962C817.06,289.069 813.804,289.316 813.77,289.32Z" style="fill-rule:nonzero;"/>
                <path d="M814.49,292.88L814.465,293.342C814.632,293.349 818.526,293.551 819.847,291.394L819.454,291.151C818.275,293.078 814.528,292.884 814.49,292.88Z" style="fill-rule:nonzero;"/>
                <path d="M844.02,290.44C844.09,290.513 845.768,292.172 847.729,292.098C848.689,292.064 849.541,291.622 850.26,290.795L849.652,290.267C849.085,290.92 848.428,291.268 847.704,291.296C846.098,291.354 844.6,289.888 844.585,289.87L844.02,290.44Z" style="fill-rule:nonzero;"/>
            </g>
        </g>
        <g id="palm">
            <g>
                <path d="M961.06,304.22C960.851,304.3 960.642,304.425 960.452,304.623L961.06,304.22Z" style="fill:rgb(134,38,51);fill-rule:nonzero;stroke:black;stroke-width:0.42px;stroke-miterlimit:4.8;"/>
                <path d="M974.92,300.75C974.786,300.406 974.698,300.551 974.52,300.398C974.267,300.19 974.121,299.522 973.898,299.273C973.766,299.12 973.613,299.269 973.47,299.231C973.146,298.518 972.765,297.767 972.424,297.079C972.477,297 972.51,296.905 972.518,296.759C972.518,296.731 972.358,296.182 972.347,296.158C972.25,296.005 972.096,296.095 972.003,295.859C971.898,295.622 971.978,295.157 971.94,294.878C971.913,294.646 971.822,294.517 971.836,294.19C971.85,293.905 972.003,293.574 971.985,293.324C971.978,293.168 971.794,292.817 971.739,292.685C971.516,292.146 971.328,291.638 971.301,290.974C971.273,290.372 971.394,290.004 971.439,289.482C971.495,288.857 971.164,288.553 971.164,287.976C971.168,287.534 971.355,287.038 971.408,286.642C971.481,286.099 971.487,285.313 971.441,284.758C971.4,284.226 971.25,283.906 971.333,283.308C971.355,283.162 971.424,283.044 971.441,282.839C971.437,282.692 971.437,282.551 971.437,282.408L971.437,281.55C971.437,281.272 971.465,280.958 971.441,280.687C971.417,280.462 971.285,280.229 971.285,280.051C971.285,279.745 971.48,279.6 971.438,279.185C971.411,278.886 971.368,278.816 971.3,278.556C971.168,278.063 971.258,277.565 971.177,277.037C971.139,276.784 971.058,276.703 971.034,276.414C971.001,276.073 971.105,275.956 971.139,275.714C971.174,275.474 971.21,275.159 971.177,274.904C971.139,274.598 970.994,274.382 971.034,274.049L970.923,277.831C970.829,274.531 970.697,271.476 970.697,271.476L965.679,269.119C965.679,269.119 965.254,278.333 965.362,279.615C965.463,280.902 965.894,289.691 965.679,290.762C965.463,291.834 964.935,297.191 964.935,297.191C964.935,297.191 962.481,298.905 961.521,300.831C960.557,302.761 960.773,303.404 960.449,303.404L962.834,303.032L961.058,304.218C961.424,304.08 961.809,304.11 962.164,304.389C962.205,304.423 962.47,304.65 962.504,304.65C962.597,304.65 962.727,304.411 962.841,304.369C963.21,304.244 963.522,304.937 963.873,304.884C964.061,304.856 964.318,304.658 964.472,304.457C964.599,304.286 964.648,303.987 964.781,303.873C964.904,303.769 965.202,303.89 965.331,303.89C965.681,303.89 966.036,303.901 966.387,303.89C966.854,303.877 967.232,303.219 967.662,302.847C968.063,302.51 968.358,302.391 968.787,302.417C969.256,302.451 969.68,302.889 970.157,302.917C970.518,302.935 970.769,302.979 971.061,302.6C971.262,302.336 971.405,301.944 971.596,301.669L972.782,301.485C973.017,301.583 973.257,301.691 973.458,301.683C973.761,301.669 974.074,301.632 974.374,301.679C974.488,301.694 974.714,301.961 974.807,301.895C974.871,301.846 974.979,301.485 975.044,301.377C975.017,301.232 974.973,300.871 974.92,300.749L974.92,300.75Z" style="fill:rgb(134,38,51);fill-rule:nonzero;stroke:black;stroke-width:0.42px;stroke-miterlimit:4.8;"/>
                <path d="M964.77,304.05C965.072,304.05 965.35,303.98 965.604,304.202C965.646,304.283 965.683,304.36 965.723,304.435C965.806,304.492 965.893,304.502 965.974,304.47C966.144,304.585 966.179,304.65 966.366,304.693C966.54,304.73 966.731,304.686 966.905,304.689C967.124,304.696 967.231,304.772 967.436,304.856C967.794,305.002 968.03,304.863 968.34,304.64C968.699,304.376 968.83,304.578 969.174,304.909C969.432,305.155 969.379,305.132 969.612,304.964C969.647,304.885 969.688,304.808 969.727,304.741C969.842,304.693 969.96,304.662 970.078,304.64C970.27,304.55 970.46,304.561 970.642,304.491C970.832,304.417 970.972,304.206 971.173,304.244C971.347,304.279 971.546,304.42 971.712,304.473C971.872,304.528 971.941,304.56 972.074,304.657C972.313,304.164 972.842,304.017 973.18,303.778C973.531,303.535 973.858,303.83 974.244,303.834C974.449,303.834 974.532,303.715 974.678,303.667C974.842,303.607 975.029,303.693 975.186,303.628C975.353,303.566 975.384,303.405 975.568,303.385C975.908,303.343 976.288,303.898 976.628,304.003C976.819,304.066 977.704,304.264 977.574,303.614C977.449,302.995 976.894,303.423 976.775,302.989C976.711,302.742 976.841,302.39 976.764,302.113C976.698,301.86 976.42,301.567 976.253,301.512C976.044,301.446 975.923,301.664 975.745,301.494C975.599,301.358 975.544,300.85 975.415,300.649C975.244,300.774 975.137,300.889 974.911,300.843C974.653,300.781 974.678,300.693 974.486,300.45C974.069,299.928 973.829,300.763 973.444,300.631C973.151,300.537 972.88,299.8 972.65,299.5C972.528,299.341 972.184,298.822 972.007,298.938C971.708,299.132 971.98,299.696 971.824,299.946C971.712,300.12 971.316,299.942 971.173,299.97C970.948,300.019 970.906,300.078 970.742,300.349C970.412,300.895 970.22,301.329 969.707,301.267C969.463,301.239 969.28,300.992 969.042,301.082C968.789,301.179 968.646,301.45 968.368,301.482C968.166,301.498 967.933,301.506 967.735,301.43C967.541,301.342 967.321,300.978 967.144,300.877C967.068,300.814 966.991,300.801 966.905,300.831C966.883,300.82 966.616,300.664 966.612,300.664C966.302,300.574 966.328,300.585 966.202,300.994C966.128,301.248 966.101,301.509 966.007,301.749C965.917,301.951 965.719,302.2 965.604,302.336C965.388,302.569 965.284,302.506 965.003,302.59C964.777,302.664 964.477,303.015 964.356,302.563C964.176,301.881 964.856,300.862 964.098,301.04C963.9,301.086 963.781,301.123 963.66,301.416C963.526,301.753 963.634,301.971 963.574,302.341C963.494,302.806 962.606,303.589 962.782,304.01C962.9,304.306 963.296,303.85 963.404,303.924C963.584,304.048 963.533,304.345 963.661,304.543C963.93,304.953 964.726,303.907 964.771,304.473" style="fill:rgb(134,38,51);fill-rule:nonzero;stroke:black;stroke-width:0.42px;stroke-miterlimit:4.8;"/>
                <path d="M961.55,300.4C961.548,300.341 961.537,300.285 961.533,300.224C961.321,300.185 961.081,299.96 960.886,299.956C960.703,299.945 960.344,300.394 960.218,300.609C959.829,301.252 959.937,302.128 959.283,302.115C959.124,302.111 958.748,302.003 958.608,302.1C958.362,302.274 958.518,302.789 958.518,303.14C958.518,303.47 958.668,303.14 958.491,303.568C958.438,303.686 958.279,303.724 958.237,303.881C958.105,304.44 958.57,304.263 958.776,304.257C959.304,304.253 959.829,304.253 960.351,304.257C960.668,304.264 960.859,304.152 961.154,304.037C961.348,303.971 961.762,303.975 961.927,303.801C961.986,303.735 962.178,303.293 962.204,303.189C962.246,302.973 962.163,302.712 962.215,302.532C962.298,302.216 962.581,302.337 962.632,301.91C962.768,300.862 961.65,301.646 961.826,300.616" style="fill:rgb(134,38,51);fill-rule:nonzero;stroke:black;stroke-width:0.42px;stroke-miterlimit:4.8;"/>
            </g>
            <g>
                <path d="M974.21,271.28C974.21,272.636 973.282,273.728 972.132,273.728C970.995,273.728 970.059,272.636 970.059,271.28C970.059,269.928 970.994,268.828 972.132,268.828C973.281,268.829 974.21,269.928 974.21,271.28Z" style="fill-rule:nonzero;stroke:black;stroke-width:0.78px;stroke-miterlimit:4.8;"/>
                <path d="M967.43,268.26C967.43,269.612 966.501,270.708 965.356,270.708C964.209,270.708 963.278,269.612 963.278,268.26C963.278,266.908 964.209,265.81 965.356,265.81C966.501,265.81 967.43,266.908 967.43,268.26Z" style="fill-rule:nonzero;stroke:black;stroke-width:0.78px;stroke-miterlimit:4.8;"/>
                <path d="M971.01,269.2C971.01,270.556 970.081,271.648 968.936,271.648C967.792,271.648 966.864,270.556 966.864,269.2C966.864,267.844 967.792,266.75 968.936,266.75C970.081,266.75 971.01,267.845 971.01,269.2Z" style="fill-rule:nonzero;stroke:black;stroke-width:0.78px;stroke-miterlimit:4.8;"/>
                <path d="M967.54,271.44C967.54,272.796 966.608,273.894 965.464,273.894C964.32,273.894 963.392,272.795 963.392,271.44C963.392,270.088 964.319,268.992 965.464,268.992C966.609,268.992 967.54,270.086 967.54,271.44Z" style="fill-rule:nonzero;stroke:black;stroke-width:0.78px;stroke-miterlimit:4.8;"/>
                <path d="M970.76,273.31C970.76,274.662 969.825,275.764 968.685,275.764C967.542,275.764 966.609,274.662 966.609,273.31C966.609,271.958 967.542,270.862 968.685,270.862C969.824,270.863 970.76,271.958 970.76,273.31Z" style="fill-rule:nonzero;stroke:black;stroke-width:0.78px;stroke-miterlimit:4.8;"/>
            </g>
            <path d="M971.76,246.58C971.76,246.58 992.678,217.371 1015.11,247.714C1015.11,247.714 1015.3,250.732 1013.22,253.934L1012.66,251.486L1011.34,251.86L1010.96,250.353L1008.51,250.166L1009.26,246.96L1006.62,249.034L1007,246.771L1003.99,249.791L1004.37,243.38L1001.16,248.846L1001.53,245.079L1000.41,246.772L999.725,244.576L998.712,246.772L997.2,245.644L997.2,247.151L994.565,244.889L993.623,247.904L992.304,244.702L991.926,246.962L990.604,244.323L990.42,247.151L986.081,245.265L987.023,247.904L984.954,246.399L985.33,247.904L982.506,247.341L982.691,249.035L979.676,248.469L980.243,249.975L976.095,249.413L977.597,251.109L977.18,251.799C977.18,251.799 999.84,244.326 1001.35,272.595L997.2,274.667L998.333,272.411L997.2,271.654L993.81,269.019L994.752,265.434L993.623,265.814L993.432,263.741L992.868,264.117L991.546,262.044L991.17,262.799L990.228,260.345L989.286,262.046L988.719,257.897L987.214,260.54L987.022,259.031L986.456,259.973L984.572,257.71L984.011,259.218L983.253,258.088L982.69,259.406L980.616,257.518L980.616,259.031L979.299,257.897L978.728,258.652L975.53,256.955L975.334,258.46L973.642,256.955L973.074,258.46C973.074,258.46 993.623,270.149 987.211,289.185L986.077,291.633L985.705,285.229L983.821,288.619L985.132,281.269L983.821,282.586L983.627,279.763L981.937,282.586L981.363,279.385L980.615,280.327L979.479,275.425L978.537,277.501L977.031,272.035L975.901,274.294L975.147,269.587L974.392,272.413L972.129,268.264L971.755,269.957L970.438,266.567L969.679,267.701C969.679,267.701 965.91,267.509 964.781,266.567C963.651,265.629 960.445,272.224 960.445,272.224L960.823,268.264L959.506,270.899L959.506,268.264L957.054,276.178L956.488,270.525L955.169,275.425L954.601,273.92L954.226,275.995L953.471,275.237L952.813,277.462L951.583,276.559L951.583,279.573L950.454,278.065L949.512,282.589L948.948,280.708L948.948,282.777L948.006,281.651L947.061,286.175L945.743,284.291L945.558,287.491L946.119,289.945L944.613,289.19L945.18,293.143C945.18,293.143 939.336,282.216 946.313,271.659C953.281,261.11 962.706,258.28 962.706,258.28L961.76,257.341L961.573,256.396L955.92,259.222L956.111,257.521L954.601,258.842L954.226,256.958L953.28,258.655L953.096,257.9L951.774,259.976L951.017,256.958L950.077,260.543L949.188,258.036L947.251,263.365L947.251,259.409L945.743,263.557L945.179,259.033L944.05,264.307L944.05,259.596L942.349,264.307L941.22,259.787L940.465,264.119L939.336,260.729L938.202,265.816L936.509,261.292L935.567,268.079L934.438,265.436L934.247,270.338L932.932,267.324L934.247,273.728L932.55,271.28L933.118,275.237L930.67,270.901L930.857,275.995L929.536,274.295L928.968,276.18C928.968,276.18 928.408,256.58 941.784,252.808C955.17,249.04 963.839,253.941 963.839,253.941L958.752,249.796L959.316,248.475L957.432,248.475L958.186,246.966L954.229,247.157L955.359,245.649L952.341,246.024L952.341,245.084L950.457,246.587L951.211,244.894L948.573,246.587L948.412,244.08L947.063,246.215L946.315,243.952L940.281,249.98L941.976,243.762L940.847,245.084L940.66,243.762L938.963,246.404L938.585,244.517L937.83,246.777L937.263,244.14L935.949,246.777L934.626,244.331L934.063,247.536L933.118,245.836L931.987,248.286L930.483,246.777L930.292,248.286L927.276,246.966L928.031,249.23L925.768,247.346L925.2,250.36L923.885,248.852L922.943,252.624L922.001,249.041L921.059,251.868C921.059,251.868 932.845,221.582 962.664,241.342C962.664,241.342 965.911,244.518 966.666,246.778C967.421,249.042 966.857,247.159 966.857,247.159L966.289,226.238L967.42,235.285L968.173,232.079L967.986,236.792L970.998,230.194C970.998,230.194 967.421,241.127 968.737,245.084C968.737,245.084 970.06,232.458 974.586,230.948L970.438,239.994L971.755,239.804L970.813,241.692L971.944,241.692L970.577,244.682L969.87,246.216L970.621,247.722L971.76,246.581L971.76,246.58Z" style="fill:rgb(0,173,80);fill-rule:nonzero;stroke:black;stroke-width:0.78px;stroke-miterlimit:4.8;"/>
            <g>
                <path d="M968.66,258.87L969.254,259.405C969.334,259.322 971.198,257.336 974.328,259.979L974.846,259.363C971.104,256.199 968.677,258.841 968.66,258.87Z" style="fill-rule:nonzero;"/>
                <path d="M967.75,248.61L967.628,249.335C967.628,249.335 968.704,248.876 969.081,248.714C968.848,249.13 968.082,250.463 968.082,250.463C968.082,250.463 969.664,249.937 970.25,249.742C969.304,250.98 967.562,253.259 967.562,253.259L968.201,253.753L972.478,248.152C972.478,248.152 970.509,248.809 969.821,249.038C970.098,248.556 970.961,247.033 970.961,247.033C970.961,247.033 969.216,247.783 968.663,248.021C968.816,247.092 969.138,245.147 969.138,245.147L968.343,245.014L967.75,248.61Z" style="fill-rule:nonzero;"/>
                <path d="M963.76,248.84C963.76,248.84 964.288,250.009 964.685,250.879C964.514,250.808 963.21,250.286 963.21,250.286L967.559,257.98C967.559,257.98 968.085,257.31 968.116,257.268C967.678,258.391 967.24,259.524 967.24,259.524L967.991,259.816L969.866,254.994L969.174,254.601C969.174,254.601 968.146,255.919 967.665,256.534C967.258,255.811 965.753,253.148 965.039,251.889C965.129,251.923 966.246,252.373 966.246,252.373C966.246,252.373 965.426,250.561 965.043,249.72C965.55,250.036 966.674,250.738 966.674,250.738L966.674,247.87L965.87,247.87L965.87,249.289C965.244,248.899 963.207,247.627 963.207,247.627L963.76,248.84L963.76,248.84Z" style="fill-rule:nonzero;"/>
                <path d="M961.02,258.5L961.34,259.237C962.518,258.733 963.488,258.649 964.225,259C965.088,259.414 965.348,260.304 965.351,260.311L966.126,260.102C966.115,260.05 965.774,258.854 964.583,258.28C963.631,257.822 962.431,257.895 961.02,258.5Z" style="fill-rule:nonzero;"/>
                <g transform="matrix(-0.154905,-0.987929,0.987929,-0.154905,0,0)">
                    <rect x="-412.82" y="911.45" width="4.266" height="0.806"/>
                </g>
                <g transform="matrix(-0.316288,-0.948663,0.948663,-0.316288,0,0)">
                    <rect x="-559.16" y="836.26" width="3.394" height="0.806"/>
                </g>
                <g transform="matrix(-0.243194,-0.969978,0.969978,-0.243194,0,0)">
                    <rect x="-496.74" y="877.86" width="3.316" height="0.806"/>
                </g>
            </g>
        </g>
        <g id="dove">
            <g>
                <path d="M811.41,365.04C811.41,365.04 807.876,363.434 806.267,364.609C804.659,365.791 804.878,367.502 803.484,367.394C803.484,367.394 808.838,368.573 810.016,367.178C811.193,365.791 811.41,365.359 811.41,365.359" style="fill:rgb(0,173,80);fill-rule:nonzero;stroke:black;stroke-width:0.78px;stroke-miterlimit:4.8;"/>
                <path d="M812.06,366.52C812.06,366.52 809.734,369.629 810.538,371.45C811.34,373.272 813.061,373.428 812.654,374.765C812.654,374.765 814.956,369.791 813.85,368.339C812.745,366.897 812.376,366.594 812.376,366.594" style="fill:rgb(0,173,80);fill-rule:nonzero;stroke:black;stroke-width:0.78px;stroke-miterlimit:4.8;"/>
                <path d="M808.14,357.91C808.14,357.91 804.43,359.061 804.014,361.005C803.588,362.951 804.893,364.091 803.782,364.936C803.782,364.936 808.564,362.256 808.519,360.43C808.474,358.607 808.356,358.146 808.356,358.146" style="fill:rgb(0,173,80);fill-rule:nonzero;stroke:black;stroke-width:0.78px;stroke-miterlimit:4.8;"/>
                <path d="M810.32,359.19C810.32,359.19 812.079,355.723 810.972,354.072C809.866,352.409 808.14,352.552 808.31,351.168C808.31,351.168 806.896,356.464 808.237,357.704C809.58,358.934 810,359.172 810,359.172" style="fill:rgb(0,173,80);fill-rule:nonzero;stroke:black;stroke-width:0.78px;stroke-miterlimit:4.8;"/>
                <path d="M806.68,357.93C806.68,357.93 806.765,354.054 805.048,353.041C803.333,352.026 801.839,352.9 801.39,351.574C801.39,351.574 802.416,356.963 804.164,357.502C805.91,358.027 806.391,358.058 806.391,358.058" style="fill:rgb(0,173,80);fill-rule:nonzero;stroke:black;stroke-width:0.78px;stroke-miterlimit:4.8;"/>
                <path d="M813.02,364.39C813.02,364.39 817.088,362.993 817.412,367.388C817.732,371.778 817.196,370.281 817.196,370.281C817.196,370.281 815.054,365.568 812.7,364.817L813.02,364.39Z" style="fill:rgb(0,173,80);fill-rule:nonzero;stroke:black;stroke-width:0.78px;stroke-miterlimit:4.8;"/>
            </g>
            <g>
                <path d="M811.99,366.59C811.99,366.684 812.416,370.004 812.416,370.004L812.988,369.931L812.558,366.609C812.572,366.613 813.948,359.308 813.948,359.308L813.381,359.204L811.99,366.59Z" style="fill-rule:nonzero;"/>
                <path d="M808.29,365.51L808.1,366.052C810.046,366.736 812.761,364.598 812.874,364.508L812.514,364.06C812.49,364.077 809.936,366.094 808.29,365.51Z" style="fill-rule:nonzero;"/>
                <g transform="matrix(-0.892317,-0.451409,0.451409,-0.892317,0,0)">
                    <rect x="-888.86" y="44.844" width="10.201" height="0.804"/>
                </g>
                <g transform="matrix(-0.706707,-0.707507,0.707507,-0.706707,0,0)">
                    <rect x="-825" y="316.26" width="0.802" height="2.574"/>
                </g>
                <g transform="matrix(-0.418792,-0.908082,0.908082,-0.418792,0,0)">
                    <rect x="-665.49" y="585.05" width="4.603" height="0.803"/>
                </g>
                <path d="M812.67,364.42L812.722,365.224C815.197,365.056 815.802,366.659 815.806,366.677L816.595,366.513C816.502,366.054 815.51,364.229 812.67,364.42Z" style="fill-rule:nonzero;"/>
            </g>
            <path d="M854.43,366.27C857.465,364.57 858.073,358.613 858.073,358.613C857.347,360.804 851.762,362.988 851.762,362.988C855.889,360.432 860.864,348.904 860.864,348.904C859.53,353.033 848.726,356.43 841.803,360.315C834.881,364.198 838.525,375.373 838.525,375.373C836.585,374.036 832.819,368.09 832.093,362.864C831.36,357.645 829.297,355.584 824.562,354.975C819.824,354.367 817.033,359.707 817.033,359.707L809.993,363.354L817.152,363.594C817.152,363.594 822.258,365.298 822.258,369.303C822.258,373.312 817.765,389.338 825.168,398.325C830.321,404.57 849.334,408.158 849.334,408.158" style="fill:white;fill-rule:nonzero;stroke:black;stroke-width:1px;stroke-miterlimit:4.8;"/>
            <path d="M840.47,378.65C840.47,378.65 841.927,371.485 846.662,371.728C851.397,371.971 852.733,366.388 855.525,365.536C858.318,364.688 872.767,360.805 874.346,353.88C874.346,353.88 873.011,365.296 859.778,371.002C859.778,371.002 870.459,367.479 871.676,365.172C871.676,365.172 866.937,375.372 855.404,376.95C855.404,376.95 866.21,376.101 867.789,373.189C867.789,373.189 862.932,379.622 854.92,380.474C854.92,380.474 862.325,383.509 864.269,380.958C864.269,380.958 860.261,385.693 855.281,386.054L856.621,386.42C856.621,386.42 851.885,392.007 846.663,388.242C841.444,384.476 841.319,389.216 841.319,389.216" style="fill:white;fill-rule:nonzero;stroke:black;stroke-width:1px;stroke-miterlimit:4.8;"/>
            <path d="M851.25,389.45C851.25,389.45 857.348,399.652 857.957,405.115C857.957,405.115 869.615,417.987 873.985,418.71C873.985,418.71 871.92,419.558 868.154,416.405C868.154,416.405 871.311,419.683 871.92,419.806C872.524,419.93 869.368,419.562 868.881,418.71C868.881,418.71 870.219,420.658 871.068,420.9C871.92,421.144 870.219,420.658 870.219,420.658C870.219,420.658 868.638,420.414 867.91,419.806C867.181,419.201 867.667,421.381 867.667,421.381C867.667,421.381 865.845,420.895 865.24,420.289C864.632,419.684 865.484,421.628 865.484,421.628L863.906,421.262L862.814,421.988C862.814,421.988 862.692,422.718 861.958,422.111C861.235,421.51 859.897,422.111 859.897,422.111C859.897,422.111 858.922,422.963 858.44,422.354C857.958,421.748 856.117,424.69 856.117,424.69L848.472,406.235" style="fill:white;fill-rule:nonzero;stroke:black;stroke-width:1px;stroke-miterlimit:4.8;"/>
            <g>
                <g transform="matrix(-0.465083,-0.885267,0.885267,-0.465083,0,0)">
                    <rect x="-773.68" y="563.31" width="20.776" height="1.146"/>
                </g>
                <g transform="matrix(-0.666131,-0.745835,0.745835,-0.666131,0,0)">
                    <rect x="-892.01" y="365.7" width="24.817" height="1.151"/>
                </g>
                <g transform="matrix(-0.731567,-0.681769,0.681769,-0.731567,0,0)">
                    <rect x="-923.37" y="286.33" width="25.786" height="1.149"/>
                </g>
            </g>
            <g>
                <path d="M823.44,360.84C823.44,360.84 822.209,358.636 821.137,359.464C820.068,360.289 819.452,360.44 819.268,360.383C819.268,360.383 820.343,360.442 820.954,359.861C821.567,359.275 822.61,359.645 823.44,360.84Z" style="fill-rule:nonzero;"/>
                <path d="M816.78,359.83C816.78,359.83 817.456,361.228 817.465,361.252C817.397,361.256 816.702,363.509 816.702,363.509L817.255,363.68L818.005,361.226C817.992,361.013 817.302,359.584 817.302,359.584L816.78,359.83Z" style="fill-rule:nonzero;"/>
                <path d="M823.16,360.5C823.16,360.5 822.242,361.575 820.984,361.266L819.732,360.96C819.732,360.96 820.798,361.02 821.508,361.053C822.208,361.082 823.126,360.716 823.16,360.5Z" style="fill-rule:nonzero;"/>
                <path d="M822.86,360.72C822.86,360.72 821.728,359.525 820.96,359.862C820.96,359.862 822.31,359.431 823.076,360.592L822.86,360.72Z" style="fill-rule:nonzero;"/>
                <path d="M822.67,360.5C822.67,360.5 821.384,361.387 819.971,360.41L819.885,360.344L820.068,360.285C820.069,360.286 821.846,361.02 822.67,360.5Z" style="fill-rule:nonzero;"/>
                <circle cx="821.573" cy="360.284" r="0.383"/>
            </g>
            <path d="M822.61,394.2C822.61,394.2 821.614,396.034 822.135,397.139C822.663,398.242 825.026,398.814 825.34,400.285C825.657,401.76 826.445,401.756 827.548,401.551C828.653,401.339 828.862,401.287 828.862,401.287C828.862,401.287 824.237,398.814 823.028,394.826L822.61,394.2Z" style="fill-rule:nonzero;"/>
        </g>
        <g id="bananas">
            <g>
                <path d="M972.09,356.85C972.09,356.85 980.508,345.751 987.972,348.666C995.437,351.583 1000.29,352.987 1000.29,352.987C1000.29,352.987 1000.43,360.462 996.46,360.462C992.5,360.462 988.703,352.997 985.094,355.216C981.478,357.431 978.51,360.466 978.276,361.512C978.043,362.56 968.714,362.795 972.091,356.85L972.09,356.85Z" style="fill:rgb(134,38,51);fill-rule:nonzero;stroke:black;stroke-width:0.48px;stroke-miterlimit:4.8;"/>
                <path d="M940.14,410.37C940.14,410.37 937.812,412.814 938.862,413.401C939.916,413.982 942.008,413.279 942.008,412.466C942.007,411.646 940.613,410.137 940.14,410.37Z" style="fill:rgb(134,38,51);fill-rule:nonzero;stroke:black;stroke-width:0.78px;stroke-miterlimit:4.8;"/>
                <path d="M938.28,412.7C938.28,412.7 933.968,410.245 930.586,416.076C927.199,421.905 924.404,431.353 922.422,432.637C920.441,433.918 941.663,423.308 941.897,418.878C941.897,418.878 943.294,413.162 941.08,413.276C938.865,413.398 938.747,413.632 938.28,412.7L938.28,412.7Z" style="fill:rgb(134,38,51);fill-rule:nonzero;stroke:black;stroke-width:0.78px;stroke-miterlimit:4.8;"/>
                <path d="M938.86,413.4C938.86,413.4 934.431,414.443 933.498,420.737C932.566,427.04 926.384,430.302 926.036,430.534" style="fill:rgb(134,38,51);fill-rule:nonzero;stroke:black;stroke-width:0.48px;stroke-miterlimit:4.8;"/>
                <path d="M1000.3,352.99C1000.3,352.99 993.562,355.334 994.726,360" style="fill:rgb(134,38,51);fill-rule:nonzero;stroke:black;stroke-width:0.48px;stroke-miterlimit:4.8;"/>
            </g>
            <path d="M948.54,366.64C948.54,366.64 948.772,350.664 961.824,351.363C964.297,351.592 963.118,354.509 963.118,354.509C963.118,354.509 965.941,352.532 967.231,355.675C967.231,355.675 971.348,353.811 971.816,357.893C971.816,357.893 976.285,357.313 975.696,360.925C975.696,360.925 978.752,360.226 978.638,362.792C978.638,362.792 982.164,361.391 981.809,365.007C981.809,365.007 985.69,362.441 985.105,367.103C985.105,367.103 989.104,364.309 990.509,368.972C991.92,373.634 986.514,383.546 981.222,386.11" style="fill:rgb(254,221,0);fill-rule:nonzero;stroke:black;stroke-width:0.48px;stroke-miterlimit:4.8;"/>
            <g>
                <path d="M984.81,367.61C984.828,367.735 986.569,380.108 979.553,384.636L979.8,385.026C987.07,380.335 985.282,367.67 985.266,367.542L984.81,367.61L984.81,367.61Z" style="fill-rule:nonzero;"/>
                <path d="M976.36,381.16L976.684,381.49C981.128,377.165 982.084,365.514 982.118,365.021L981.663,364.983C981.652,365.105 980.686,376.957 976.36,381.16L976.36,381.16Z" style="fill-rule:nonzero;"/>
                <path d="M972.21,378.39L972.668,378.427C973.24,371.232 978.864,363.002 978.924,362.918L978.545,362.66C978.486,362.742 972.793,371.073 972.21,378.39L972.21,378.39Z" style="fill-rule:nonzero;"/>
                <path d="M968.95,376.29L969.408,376.336C970.209,367.656 975.941,361.14 975.998,361.078L975.657,360.77C975.597,360.834 969.766,367.458 968.95,376.29L968.95,376.29Z" style="fill-rule:nonzero;"/>
                <path d="M964.4,373.39L964.858,373.407C965.314,363.158 972.038,358.127 972.105,358.078L971.833,357.706C971.768,357.757 964.866,362.907 964.4,373.39L964.4,373.39Z" style="fill-rule:nonzero;"/>
                <path d="M960.2,370.84L960.662,370.826C960.326,361.498 967.497,355.914 967.572,355.857L967.293,355.492C967.22,355.552 959.859,361.272 960.2,370.84L960.2,370.84Z" style="fill-rule:nonzero;"/>
                <path d="M952.63,367.43L953.085,367.486C954.334,357.389 963.321,354.761 963.411,354.736L963.286,354.295C963.196,354.319 953.913,357.024 952.63,367.43L952.63,367.43Z" style="fill-rule:nonzero;"/>
            </g>
            <path d="M940.84,386C940.84,386 938.628,371.187 947.488,366.528C947.488,366.528 949.125,366.176 950.054,368.276C950.054,368.276 954.72,366.295 954.838,370.254C954.838,370.254 957.167,368.39 957.752,370.954C957.752,370.954 962.765,369.907 961.833,373.637C961.833,373.637 966.029,372.472 965.679,376.082C965.679,376.082 969.879,374.568 969.176,377.717C969.176,377.717 973.605,376.67 972.558,380.284C972.558,380.284 978.041,379.703 976.408,383.549C976.408,383.549 980.489,382.501 979.554,385.649C979.554,385.649 984.92,386.584 982.468,389.964C980.02,393.342 973.839,398.473 967.782,400.688" style="fill:rgb(0,173,80);fill-rule:nonzero;stroke:black;stroke-width:0.48px;stroke-miterlimit:4.8;"/>
            <path d="M936.06,400.92C936.06,400.92 932.444,388.565 939.329,385.411C939.329,385.411 940.604,385.059 940.838,386.346C940.838,386.346 942.358,384.361 943.525,386.113C943.525,386.113 947.02,384.48 947.84,387.044C947.84,387.044 950.17,385.059 951.338,387.972C951.338,387.972 953.554,387.044 953.554,389.373C953.554,389.373 956.585,388.091 956.585,390.89C956.585,390.89 959.495,389.725 958.914,392.871C958.914,392.871 963.347,393.57 962.064,395.669C962.064,395.669 966.035,396.715 964.512,398.352C964.512,398.352 968.824,397.886 966.493,400.8C966.493,400.8 969.758,399.753 967.895,403.37C966.026,406.982 960.2,410.946 956.119,411.411" style="fill:rgb(0,173,80);fill-rule:nonzero;stroke:black;stroke-width:0.48px;stroke-miterlimit:4.8;"/>
            <path d="M940.37,410.71C940.37,410.71 932.676,403.248 936.295,401.034C936.295,401.034 937.921,401.496 938.506,403.131C938.506,403.131 940.37,400.45 941.424,403.246C941.424,403.246 944.223,402.315 944.223,404.184L946.435,405.818C946.435,405.818 949.004,405.582 948.538,407.216C948.538,407.216 951.337,406.864 951.218,408.381C951.218,408.381 953.67,408.496 953.437,410.126C953.437,410.126 957.63,410.825 955.766,412.929C955.766,412.929 948.42,414.441 943.291,412.344C943.291,412.343 940.603,411.408 940.37,410.71L940.37,410.71Z" style="fill:rgb(0,173,80);fill-rule:nonzero;stroke:black;stroke-width:0.48px;stroke-miterlimit:4.8;"/>
            <g>
                <path d="M966.76,398.38L966.924,398.807C971.483,397.052 979.402,386.243 979.74,385.783L979.368,385.508C979.284,385.625 971.194,396.672 966.76,398.379L966.76,398.38Z" style="fill-rule:nonzero;"/>
                <path d="M964.17,396.41L964.393,396.81C968.36,394.597 976.26,384.134 976.593,383.689L976.227,383.411C976.148,383.523 968.053,394.245 964.169,396.409L964.17,396.41Z" style="fill-rule:nonzero;"/>
                <path d="M961.92,395.49L962.216,395.842C966.406,392.364 972.507,380.876 972.768,380.39L972.362,380.174C972.3,380.291 966.041,392.07 961.921,395.491L961.92,395.49Z" style="fill-rule:nonzero;"/>
                <path d="M959.86,392.84L960.316,392.904C961.112,387.097 969.269,377.957 969.348,377.867L969.008,377.559C968.67,377.939 960.674,386.895 959.86,392.84L959.86,392.84Z" style="fill-rule:nonzero;"/>
                <path d="M943.53,385.78L943.99,385.739C943.304,377.537 950.171,368.502 950.24,368.412L949.876,368.135C949.802,368.224 942.832,377.397 943.53,385.78Z" style="fill-rule:nonzero;"/>
                <path d="M947.85,386.5L948.306,386.421C947.17,379.844 954.936,370.492 955.016,370.401L954.665,370.102C954.338,370.491 946.681,379.707 947.85,386.5Z" style="fill-rule:nonzero;"/>
                <path d="M954.49,388.92L954.95,388.907C954.724,381.4 961.926,373.875 962.001,373.798L961.671,373.477C961.598,373.554 954.256,381.22 954.49,388.92L954.49,388.92Z" style="fill-rule:nonzero;"/>
                <path d="M938.65,402.52L939.081,402.359C936.465,395.423 941.006,386.541 941.052,386.454L940.638,386.242C940.593,386.333 935.961,395.391 938.65,402.52L938.65,402.52Z" style="fill-rule:nonzero;"/>
                <path d="M941.67,402.97L942.108,402.828C939.827,395.763 943.693,386.293 943.734,386.2L943.307,386.024C943.27,386.116 939.341,395.745 941.67,402.97Z" style="fill-rule:nonzero;"/>
                <path d="M954.17,410.03L954.327,410.464C961.767,407.788 966.632,401.004 966.68,400.939L966.305,400.67C966.259,400.737 961.479,407.408 954.171,410.03L954.17,410.03Z" style="fill-rule:nonzero;"/>
                <path d="M952.64,408.41L952.827,408.831C958.761,406.154 964.294,398.685 964.346,398.608L963.978,398.339C963.921,398.414 958.463,405.782 952.64,408.409L952.64,408.41Z" style="fill-rule:nonzero;"/>
                <path d="M951.2,407.85L951.469,408.223C956.11,404.861 962.073,396.241 962.136,396.153L961.758,395.896C961.697,395.984 955.781,404.534 951.2,407.849L951.2,407.85Z" style="fill-rule:nonzero;"/>
                <path d="M943.76,403.52L944.216,403.454C943.19,396.04 947.989,387.246 948.04,387.159L947.637,386.936C947.586,387.027 942.714,395.954 943.76,403.52L943.76,403.52Z" style="fill-rule:nonzero;"/>
                <path d="M946.99,405.53L947.3,405.871C952.088,401.548 953.718,389.899 953.784,389.406L953.328,389.342C953.314,389.461 951.656,401.323 946.99,405.53L946.99,405.53Z" style="fill-rule:nonzero;"/>
                <path d="M950.27,406.91L950.539,407.282C957.297,402.394 959.13,393.008 959.144,392.917L958.695,392.831C958.677,392.921 956.88,402.126 950.27,406.911L950.27,406.91Z" style="fill-rule:nonzero;"/>
                <path d="M951.05,386.68C951.05,387.118 951.072,387.555 951.112,387.998C951.105,387.96 945.987,404.581 945.987,404.581L946.425,404.716L951.564,388.042C950.77,379.982 957.86,371.183 957.93,371.097L957.576,370.809C957.505,370.888 951.05,378.902 951.05,386.68L951.05,386.68Z" style="fill-rule:nonzero;"/>
                <path d="M956.41,390.74C956.343,390.973 954.783,402.358 948.642,406.558L948.903,406.937C955.217,402.618 956.751,391.393 956.813,390.919C959.538,387.676 965.818,376.305 965.882,376.191L965.478,375.969C965.415,376.083 959.16,387.419 956.41,390.739L956.41,390.74Z" style="fill-rule:nonzero;"/>
                <path d="M938.28,403.18C938.326,403.419 939.352,409.076 940.526,411.071L940.922,410.84C939.786,408.914 938.747,403.16 938.736,403.1L938.28,403.18Z" style="fill-rule:nonzero;"/>
                <path d="M941.19,403.25C941.239,406.066 941.254,410.686 941.096,411.097L941.524,411.265C941.76,410.673 941.67,404.481 941.652,403.246L941.19,403.25L941.19,403.25Z" style="fill-rule:nonzero;"/>
                <path d="M941.45,411.32L941.868,411.507C943.839,407.217 944.446,404.258 944.454,404.23L944.002,404.14C943.995,404.164 943.4,407.082 941.45,411.32Z" style="fill-rule:nonzero;"/>
                <path d="M941.89,411.45L942.123,411.846C945.78,409.721 946.629,406.025 946.659,405.87L946.211,405.769C946.2,405.806 945.37,409.43 941.89,411.45Z" style="fill-rule:nonzero;"/>
                <path d="M942.57,411.77L942.616,412.225C946.2,411.867 948.641,407.514 948.745,407.33L948.341,407.107C948.318,407.152 945.912,411.435 942.57,411.77Z" style="fill-rule:nonzero;"/>
                <path d="M942.93,412L942.958,412.458C948.712,412.104 951.301,408.665 951.406,408.52L951.034,408.248C951.01,408.28 948.457,411.663 942.93,412Z" style="fill-rule:nonzero;"/>
                <path d="M943.34,412.12L943.246,412.569C943.556,412.64 950.888,414.194 953.398,410.372L953.013,410.121C950.679,413.679 943.412,412.134 943.34,412.12Z" style="fill-rule:nonzero;"/>
            </g>
        </g>
        <path d="M778.8,143.94L778.8,349.03C778.8,416.11 900,455.94 900,455.94C900,455.94 1021.2,416.107 1021.2,349.03L1021.2,143.94L778.8,143.94Z" style="fill:none;fill-rule:nonzero;stroke:black;stroke-width:4.2px;stroke-miterlimit:4.8;"/>
    </g>
</svg>
