<?xml version="1.0" encoding="UTF-8" standalone="no"?>
<!DOCTYPE svg PUBLIC "-//W3C//DTD SVG 1.1//EN" "http://www.w3.org/Graphics/SVG/1.1/DTD/svg11.dtd">
<svg width="100%" height="100%" viewBox="0 0 2880 1440" version="1.1" xmlns="http://www.w3.org/2000/svg" xmlns:xlink="http://www.w3.org/1999/xlink" xml:space="preserve" xmlns:serif="http://www.serif.com/" style="fill-rule:evenodd;clip-rule:evenodd;stroke-linejoin:round;stroke-miterlimit:2;">
    <rect x="0" y="0" width="2880" height="1440" style="fill:rgb(206,17,38);"/>
    <rect x="0" y="0" width="1440" height="720" style="fill:rgb(0,43,127);"/>
    <g>
        <g id="s" transform="matrix(160,0,0,160,720,30)">
            <path d="M0,0L0.309,0.951L-0.5,0.363L0.5,0.363L-0.309,0.951L0,0Z" style="fill:white;fill-rule:nonzero;"/>
        </g>
        <g id="s1" serif:id="s" transform="matrix(160,0,0,160,500,210)">
            <path d="M0,0L0.309,0.951L-0.5,0.363L0.5,0.363L-0.309,0.951L0,0Z" style="fill:white;fill-rule:nonzero;"/>
        </g>
        <g id="s2" serif:id="s" transform="matrix(150,0,0,150,945,180)">
            <path d="M0,0L0.309,0.951L-0.5,0.363L0.5,0.363L-0.309,0.951L0,0Z" style="fill:white;fill-rule:nonzero;"/>
        </g>
        <g id="s3" serif:id="s" transform="matrix(100,0,0,100,830,364.894)">
            <path d="M0,0L0.309,0.951L-0.5,0.363L0.5,0.363L-0.309,0.951L0,0Z" style="fill:white;fill-rule:nonzero;"/>
        </g>
        <g id="s4" serif:id="s" transform="matrix(200,0,0,200,720,499.789)">
            <path d="M0,0L0.309,0.951L-0.5,0.363L0.5,0.363L-0.309,0.951L0,0Z" style="fill:white;fill-rule:nonzero;"/>
        </g>
    </g>
</svg>
